<svg width="19" height="14" viewBox="0 0 19 14" fill="none" xmlns="http://www.w3.org/2000/svg">
<path d="M19 7C19 7.20628 18.9166 7.40411 18.7681 7.54997C18.6197 7.69583 18.4183 7.77778 18.2083 7.77778H0.791667C0.581704 7.77778 0.38034 7.69583 0.231874 7.54997C0.0834077 7.40411 0 7.20628 0 7C0 6.79372 0.0834077 6.59589 0.231874 6.45003C0.38034 6.30417 0.581704 6.22222 0.791667 6.22222H18.2083C18.4183 6.22222 18.6197 6.30417 18.7681 6.45003C18.9166 6.59589 19 6.79372 19 7ZM0.791667 1.55556H18.2083C18.4183 1.55556 18.6197 1.47361 18.7681 1.32775C18.9166 1.18189 19 0.984057 19 0.777778C19 0.571498 18.9166 0.373668 18.7681 0.227806C18.6197 0.0819444 18.4183 0 18.2083 0H0.791667C0.581704 0 0.38034 0.0819444 0.231874 0.227806C0.0834077 0.373668 0 0.571498 0 0.777778C0 0.984057 0.0834077 1.18189 0.231874 1.32775C0.38034 1.47361 0.581704 1.55556 0.791667 1.55556ZM18.2083 12.4444H0.791667C0.581704 12.4444 0.38034 12.5264 0.231874 12.6722C0.0834077 12.8181 0 13.0159 0 13.2222C0 13.4285 0.0834077 13.6263 0.231874 13.7722C0.38034 13.9181 0.581704 14 0.791667 14H18.2083C18.4183 14 18.6197 13.9181 18.7681 13.7722C18.9166 13.6263 19 13.4285 19 13.2222C19 13.0159 18.9166 12.8181 18.7681 12.6722C18.6197 12.5264 18.4183 12.4444 18.2083 12.4444Z" fill="#1D252C"/>
</svg>
