<svg width="225" height="225" viewBox="0 0 225 225" fill="none" xmlns="http://www.w3.org/2000/svg">
<path d="M177.321 74.6746H149.772V53.7646C149.772 43.953 145.845 34.5433 138.855 27.6055C131.865 20.6677 122.385 16.77 112.5 16.77C102.615 16.77 93.1346 20.6677 86.1447 27.6055C79.1549 34.5433 75.228 43.953 75.228 53.7646V74.6746H47.6791C44.6706 74.6746 41.7853 75.8609 39.6579 77.9724C37.5306 80.0839 36.3354 82.9477 36.3354 85.9338V176.008C36.3354 178.994 37.5306 181.858 39.6579 183.969C41.7853 186.081 44.6706 187.267 47.6791 187.267H177.321C180.329 187.267 183.215 186.081 185.342 183.969C187.47 181.858 188.665 178.994 188.665 176.008V85.9338C188.665 82.9477 187.47 80.0839 185.342 77.9724C183.215 75.8609 180.329 74.6746 177.321 74.6746ZM84.9511 53.7646C84.9511 46.5126 87.8536 39.5576 93.02 34.4296C98.1865 29.3016 105.194 26.4208 112.5 26.4208C119.806 26.4208 126.814 29.3016 131.98 34.4296C137.146 39.5576 140.049 46.5126 140.049 53.7646V74.6746H84.9511V53.7646ZM178.941 176.008C178.941 176.434 178.771 176.843 178.467 177.145C178.163 177.447 177.751 177.616 177.321 177.616H47.6791C47.2493 177.616 46.8371 177.447 46.5332 177.145C46.2293 176.843 46.0586 176.434 46.0586 176.008V85.9338C46.0586 85.5073 46.2293 85.0981 46.5332 84.7965C46.8371 84.4949 47.2493 84.3254 47.6791 84.3254H177.321C177.751 84.3254 178.163 84.4949 178.467 84.7965C178.771 85.0981 178.941 85.5073 178.941 85.9338V176.008Z" fill="#1D252C"/>
</svg>
