<svg width="33" height="33" viewBox="0 0 33 33" fill="none" xmlns="http://www.w3.org/2000/svg">
<path d="M22.4749 12.3211L18.2944 16.5L22.4749 20.6789C22.5928 20.7969 22.6864 20.9369 22.7502 21.0909C22.814 21.245 22.8469 21.4101 22.8469 21.5769C22.8469 21.7437 22.814 21.9088 22.7502 22.0629C22.6864 22.217 22.5928 22.357 22.4749 22.4749C22.357 22.5928 22.217 22.6864 22.0629 22.7502C21.9088 22.814 21.7437 22.8469 21.5769 22.8469C21.4102 22.8469 21.245 22.814 21.0909 22.7502C20.9369 22.6864 20.7969 22.5928 20.6789 22.4749L16.5 18.2944L12.3211 22.4749C12.2031 22.5928 12.0631 22.6864 11.9091 22.7502C11.755 22.814 11.5899 22.8469 11.4231 22.8469C11.2563 22.8469 11.0912 22.814 10.9371 22.7502C10.783 22.6864 10.643 22.5928 10.5251 22.4749C10.4072 22.357 10.3136 22.217 10.2498 22.0629C10.186 21.9088 10.1531 21.7437 10.1531 21.5769C10.1531 21.4101 10.186 21.245 10.2498 21.0909C10.3136 20.9369 10.4072 20.7969 10.5251 20.6789L14.7056 16.5L10.5251 12.3211C10.2869 12.0829 10.1531 11.7599 10.1531 11.4231C10.1531 11.0863 10.2869 10.7633 10.5251 10.5251C10.7633 10.2869 11.0863 10.1531 11.4231 10.1531C11.7599 10.1531 12.0829 10.2869 12.3211 10.5251L16.5 14.7056L20.6789 10.5251C20.7969 10.4072 20.9369 10.3136 21.0909 10.2498C21.245 10.186 21.4102 10.1531 21.5769 10.1531C21.7437 10.1531 21.9088 10.186 22.0629 10.2498C22.217 10.3136 22.357 10.4072 22.4749 10.5251C22.5928 10.643 22.6864 10.783 22.7502 10.9371C22.814 11.0912 22.8469 11.2563 22.8469 11.4231C22.8469 11.5898 22.814 11.755 22.7502 11.9091C22.6864 12.0631 22.5928 12.2031 22.4749 12.3211ZM33 16.5C33 19.7634 32.0323 22.9535 30.2192 25.6669C28.4062 28.3803 25.8293 30.4952 22.8143 31.744C19.7993 32.9929 16.4817 33.3196 13.281 32.6829C10.0803 32.0463 7.14031 30.4748 4.83274 28.1673C2.52518 25.8597 0.953706 22.9197 0.31705 19.719C-0.319606 16.5183 0.00714919 13.2007 1.25599 10.1857C2.50484 7.17074 4.61969 4.59379 7.3331 2.78075C10.0465 0.967708 13.2366 0 16.5 0C20.8747 0.00461971 25.0688 1.74449 28.1622 4.83784C31.2555 7.93119 32.9954 12.1253 33 16.5ZM30.4615 16.5C30.4615 13.7387 29.6427 11.0393 28.1086 8.74338C26.5745 6.44742 24.394 4.65794 21.8429 3.60122C19.2917 2.5445 16.4845 2.26802 13.7762 2.80673C11.068 3.34544 8.58026 4.67514 6.62771 6.6277C4.67515 8.58026 3.34544 11.068 2.80674 13.7762C2.26803 16.4845 2.54451 19.2917 3.60123 21.8428C4.65794 24.394 6.44743 26.5745 8.74339 28.1086C11.0394 29.6427 13.7387 30.4615 16.5 30.4615C20.2015 30.4573 23.7503 28.985 26.3677 26.3677C28.985 23.7503 30.4573 20.2015 30.4615 16.5Z" fill="white"/>
</svg>
