<svg width="74" height="26" viewBox="0 0 74 26" fill="none" xmlns="http://www.w3.org/2000/svg">
<g clip-path="url(#clip0_149_1269)">
<path d="M30.932 4.40527H34.595C34.632 4.40527 34.632 4.44138 34.632 4.44138V19.8608C34.632 19.8969 34.595 19.8969 34.595 19.8969H30.932C30.895 19.8969 30.895 19.8608 30.895 19.8608V4.4775C30.895 4.44138 30.932 4.40527 30.932 4.40527Z" fill="black"/>
<path d="M29.748 4.40527C29.785 4.40527 29.785 4.44138 29.785 4.4775L24.975 12.0969C24.938 12.1692 24.938 12.2414 24.975 12.3136L29.785 19.8608C29.822 19.8969 29.785 19.9331 29.785 19.9331H25.271C25.234 19.9331 25.197 19.8969 25.16 19.8608L22.237 15.2025C22.2 15.1664 22.163 15.1664 22.163 15.2025L19.425 19.8608C19.388 19.8969 19.351 19.9331 19.314 19.9331H15.059C15.022 19.9331 14.985 19.9331 15.022 19.8608L20.017 11.9164C20.054 11.8442 20.054 11.7358 20.017 11.6636L15.651 4.4775C15.651 4.44138 15.651 4.40527 15.688 4.40527H20.054C20.091 4.40527 20.128 4.44138 20.128 4.4775L22.755 8.81083C22.792 8.84694 22.829 8.84694 22.866 8.81083L25.567 4.4775C25.604 4.44138 25.604 4.40527 25.678 4.40527H29.748Z" fill="black"/>
<path d="M52.799 12.3139L60.902 0L74 19.9333H65.083L60.088 12.3139H52.799Z" fill="#FFCC33"/>
<path d="M13.69 4.40527H10.286C10.249 4.40527 10.212 4.44138 10.175 4.4775L0 19.8969V19.9331H4.144C4.181 19.9331 4.218 19.9331 4.218 19.8969L5.587 17.8025C5.61167 17.7784 5.63633 17.7664 5.661 17.7664H9.99C10.027 17.7664 10.027 17.8025 10.027 17.8025V19.8608C10.027 19.8969 10.027 19.9331 10.064 19.9331H13.69C13.727 19.9331 13.727 19.8969 13.727 19.8608V4.4775C13.727 4.44138 13.727 4.40527 13.69 4.40527ZM10.101 14.6969L7.4 14.7331C7.4 14.7331 7.363 14.7331 7.4 14.6969L10.249 10.2553C10.249 10.2192 10.286 10.2553 10.286 10.2553L10.101 14.6969Z" fill="black"/>
<path d="M36.778 19.933H41.551C42.143 19.933 42.772 19.8247 43.364 19.6441C45.584 18.958 46.731 16.8275 46.731 14.9858C46.731 12.0608 44.4 11.0497 41.625 9.89414C41.144 9.67747 40.552 9.4247 40.552 8.7747C40.552 8.1247 41.181 7.7997 41.884 7.7997H45.658C45.695 7.7997 45.695 7.76358 45.695 7.76358V4.40525C45.695 4.36914 45.658 4.36914 45.658 4.36914H41.699C38.406 4.36914 36.445 6.28303 36.445 8.95525C36.445 11.3025 37.962 12.4219 40.182 13.2886C41.736 13.9025 42.735 14.1553 42.735 15.383C42.735 16.033 42.328 16.6469 41.514 16.6469H36.741C36.704 16.6469 36.704 16.683 36.704 16.683V19.933H36.778Z" fill="black"/>
<path d="M48.803 4.33301C48.063 4.33301 47.471 4.91079 47.471 5.63301C47.471 6.35523 48.063 6.93301 48.803 6.93301C49.543 6.93301 50.135 6.35523 50.135 5.63301C50.135 4.91079 49.543 4.33301 48.803 4.33301ZM48.803 6.78856C48.137 6.78856 47.619 6.2469 47.619 5.63301C47.619 4.98301 48.174 4.47745 48.803 4.47745C49.469 4.47745 49.987 5.01912 49.987 5.63301C49.987 6.2469 49.469 6.78856 48.803 6.78856Z" fill="black"/>
<path d="M49.432 6.35553L49.136 5.66942C49.321 5.63331 49.432 5.45276 49.432 5.2722C49.432 5.12776 49.358 5.01942 49.284 4.9472C49.173 4.87498 49.062 4.83887 48.914 4.83887H48.322V6.35553H48.507V5.70553H48.951L49.247 6.35553H49.432ZM48.507 5.56109V5.01942H48.877C48.951 5.01942 49.025 5.01942 49.099 5.05553C49.173 5.09165 49.21 5.16387 49.21 5.2722C49.21 5.34442 49.173 5.41665 49.136 5.45276C49.062 5.52498 48.988 5.52498 48.877 5.52498H48.507V5.56109Z" fill="black"/>
<path d="M3.18199 25.7112C2.73799 25.9279 2.40499 26.0001 1.96099 26.0001C0.739992 26.0001 0.110992 25.2418 0.110992 24.4473C0.110992 23.6529 0.813992 22.8945 2.03499 22.8945C2.47899 22.8945 2.88599 22.9668 3.18199 23.1473V23.8334C2.84899 23.6529 2.47899 23.5084 2.07199 23.5084C1.40599 23.5084 0.924992 23.9056 0.924992 24.4112C0.924992 24.9529 1.40599 25.3501 2.07199 25.3501C2.47899 25.3501 2.77499 25.2418 3.21899 25.0251V25.7112H3.18199Z" fill="black"/>
<path d="M7.77 26.0001C6.586 26.0001 5.957 25.2056 5.957 24.4473C5.957 23.689 6.586 22.8945 7.77 22.8945C8.954 22.8945 9.583 23.7251 9.583 24.4473C9.583 25.2418 8.917 26.0001 7.77 26.0001ZM7.77 23.5445C7.178 23.5445 6.771 23.9056 6.771 24.4473C6.771 24.989 7.178 25.3501 7.77 25.3501C8.362 25.3501 8.769 24.989 8.769 24.4473C8.769 23.9056 8.362 23.5445 7.77 23.5445Z" fill="black"/>
<path d="M15.059 22.9668H15.762V26.0001H14.985V24.1224L14.134 25.0612H14.023L13.172 24.1224V26.0001H12.395V22.9668H13.098L14.134 24.0862L15.059 22.9668Z" fill="black"/>
<path d="M21.608 22.9668H22.311V26.0001H21.534V24.1224L20.683 25.0612H20.572L19.721 24.1224V26.0001H18.87V22.9668H19.573L20.609 24.0862L21.608 22.9668Z" fill="black"/>
<path d="M28.342 22.9668V24.664C28.342 25.6751 27.639 26.0001 26.751 26.0001C25.863 26.0001 25.16 25.6029 25.16 24.664V22.9306H25.937V24.664C25.937 25.0973 26.27 25.3501 26.714 25.3501C27.121 25.3501 27.528 25.1334 27.528 24.5918V22.8945H28.342V22.9668Z" fill="black"/>
<path d="M34.484 25.964H33.818L32.042 24.014V25.964H31.265V22.9307H32.005L33.707 24.7723V22.9307H34.484V25.964Z" fill="black"/>
<path d="M38.295 25.964H37.518V22.9307H38.295V25.964Z" fill="black"/>
<path d="M43.993 25.7112C43.549 25.9279 43.216 26.0001 42.735 26.0001C41.514 26.0001 40.885 25.2418 40.885 24.4473C40.885 23.6529 41.588 22.8945 42.809 22.8945C43.253 22.8945 43.66 22.9668 43.956 23.1473V23.8334C43.623 23.6529 43.253 23.5084 42.846 23.5084C42.18 23.5084 41.699 23.9056 41.699 24.4112C41.699 24.9529 42.18 25.3501 42.846 25.3501C43.253 25.3501 43.549 25.2418 43.993 25.0251V25.7112Z" fill="black"/>
<path d="M49.691 25.964H48.84L48.581 25.3501H47.175L46.953 25.964H46.102L47.397 22.9307H48.322L49.691 25.964ZM47.841 23.6529L47.36 24.8084H48.322L47.841 23.6529Z" fill="black"/>
<path d="M54.353 23.5085H53.206V25.964H52.429V23.5085H51.282V22.9668H54.39V23.5085H54.353Z" fill="black"/>
<path d="M57.572 25.964H56.795V22.9307H57.572V25.964Z" fill="black"/>
<path d="M61.79 26.0001C60.606 26.0001 59.977 25.2056 59.977 24.4473C59.977 23.689 60.606 22.8945 61.79 22.8945C62.974 22.8945 63.603 23.7251 63.603 24.4473C63.603 25.2418 62.937 26.0001 61.79 26.0001ZM61.79 23.5445C61.198 23.5445 60.791 23.9056 60.791 24.4473C60.791 24.989 61.198 25.3501 61.79 25.3501C62.382 25.3501 62.789 24.989 62.789 24.4473C62.789 23.9056 62.382 23.5445 61.79 23.5445Z" fill="black"/>
<path d="M69.19 25.964H68.524L66.748 24.014V25.964H65.971V22.9307H66.711L68.413 24.7723V22.9307H69.19V25.964Z" fill="black"/>
<path d="M73.815 23.7251C73.371 23.5445 73.075 23.4723 72.816 23.4723C72.52 23.4723 72.335 23.5806 72.335 23.7251C72.335 24.1945 73.963 24.0501 73.963 25.0973C73.963 25.6751 73.445 26.0001 72.742 26.0001C72.187 26.0001 71.928 25.8556 71.595 25.7112V25.0612C72.039 25.3501 72.335 25.4584 72.668 25.4584C72.964 25.4584 73.149 25.3501 73.149 25.1695C73.149 24.664 71.521 24.8445 71.521 23.7612C71.521 23.2556 72.002 22.8945 72.742 22.8945C73.112 22.8945 73.408 22.9668 73.815 23.1112V23.7251Z" fill="black"/>
<path d="M60.088 12.3135H58.756L63.788 19.9329H65.083L60.088 12.3135Z" fill="black"/>
<path d="M58.756 12.3135L63.788 19.9329H47.804L52.799 12.3135H58.756Z" fill="#FF0033"/>
</g>
<defs>
<clipPath id="clip0_149_1269">
<rect width="74" height="26" fill="white"/>
</clipPath>
</defs>
</svg>
