<svg width="50" height="50" viewBox="0 0 50 50" fill="none" xmlns="http://www.w3.org/2000/svg">
<rect width="50" height="50" fill="#00A413"/>
<path d="M33.25 18.25H29.5V17.5C29.5 16.9033 29.2629 16.331 28.841 15.909C28.419 15.4871 27.8467 15.25 27.25 15.25H22.75C22.1533 15.25 21.581 15.4871 21.159 15.909C20.7371 16.331 20.5 16.9033 20.5 17.5V18.25H16.75C16.3522 18.25 15.9706 18.408 15.6893 18.6893C15.408 18.9706 15.25 19.3522 15.25 19.75V31.75C15.25 32.1478 15.408 32.5294 15.6893 32.8107C15.9706 33.092 16.3522 33.25 16.75 33.25H33.25C33.6478 33.25 34.0294 33.092 34.3107 32.8107C34.592 32.5294 34.75 32.1478 34.75 31.75V19.75C34.75 19.3522 34.592 18.9706 34.3107 18.6893C34.0294 18.408 33.6478 18.25 33.25 18.25ZM22 17.5C22 17.3011 22.079 17.1103 22.2197 16.9697C22.3603 16.829 22.5511 16.75 22.75 16.75H27.25C27.4489 16.75 27.6397 16.829 27.7803 16.9697C27.921 17.1103 28 17.3011 28 17.5V18.25H22V17.5ZM33.25 19.75V23.6509C30.7185 25.0289 27.8822 25.7505 25 25.75C22.1179 25.7505 19.2816 25.0292 16.75 23.6519V19.75H33.25ZM33.25 31.75H16.75V25.3412C19.3187 26.5977 22.1405 27.2506 25 27.25C27.8596 27.2501 30.6813 26.5969 33.25 25.3403V31.75ZM22.75 23.5C22.75 23.3011 22.829 23.1103 22.9697 22.9697C23.1103 22.829 23.3011 22.75 23.5 22.75H26.5C26.6989 22.75 26.8897 22.829 27.0303 22.9697C27.171 23.1103 27.25 23.3011 27.25 23.5C27.25 23.6989 27.171 23.8897 27.0303 24.0303C26.8897 24.171 26.6989 24.25 26.5 24.25H23.5C23.3011 24.25 23.1103 24.171 22.9697 24.0303C22.829 23.8897 22.75 23.6989 22.75 23.5Z" fill="white"/>
</svg>
