<svg width="105" height="31" viewBox="0 0 105 31" fill="none" xmlns="http://www.w3.org/2000/svg">
<g clip-path="url(#clip0_149_1177)">
<path d="M39.1545 17.4579L44.6513 0.520036H38.218L34.9693 10.554L34.9314 10.1774L34.915 9.80243L34.8541 9.4503L34.8129 9.07373L34.7339 8.71997L34.6533 8.36296L34.5578 8.0092L34.4542 7.65382L34.334 7.2968L34.2172 6.96424L34.0575 6.61049L33.9176 6.27629L33.7366 5.95677L33.5621 5.62421L33.3564 5.28676L33.1622 4.9705L32.7426 4.3983L32.285 3.86848L31.8078 3.37616L31.2712 2.90014L30.7347 2.46487L30.1587 2.07199L29.5366 1.71824L28.9013 1.38731L28.2447 1.08898L27.5666 0.831405L26.8721 0.609697L26.1578 0.417333L25.4008 0.278765L24.6421 0.141828L23.8669 0.0619478L23.0901 0.0260833L22.2738 0L21.4575 0.0260833L20.6379 0.0782499L19.8035 0.177692L18.9691 0.298328L18.1331 0.458088L17.2773 0.653713L16.4429 0.888462L15.5871 1.16397L14.7313 1.4574L13.8919 1.81605L13.0411 2.19263L12.2001 2.60507L11.3673 3.06153L10.5477 3.53429L9.73307 4.06247L8.93652 4.61511L8.17947 5.18569L7.44875 5.77745L6.746 6.39367L6.06959 7.0213L5.43268 7.67501L4.81881 8.34176L4.26089 9.0346L3.71944 9.72418L3.20431 10.4154L2.74843 11.1425L2.31066 11.8565L1.91074 12.5836L1.5536 13.3302L1.21293 14.067L0.936442 14.8121L0.678056 15.5408L0.455878 16.2923L0.297884 17.0389L0.162931 17.7709L0.0625392 18.5191L0.0197492 19.2495L0 19.9586L0.0197492 20.6726L0.100392 21.3785L0.218887 22.0681L0.357132 22.7609L0.552978 23.4277L0.817947 24.0586L1.09608 24.7107L1.43017 25.3269L1.81034 25.9186L2.21027 26.468L2.64804 26.9815L3.10392 27.4722L3.60259 27.9254L4.12265 28.3395L4.65752 28.7389L5.23519 29.0894L5.83096 29.4252L6.45306 29.7203L7.08668 29.9746L7.76144 30.2142L8.4395 30.4115L9.13401 30.5631L9.85157 30.7066L10.5691 30.8239L11.3278 30.8875L12.0816 30.9266H12.837L13.6138 30.9038L14.4153 30.8451L15.2069 30.7669L16.0067 30.6267L16.7967 30.4914L17.6179 30.2957L18.4326 30.0757L19.2292 29.8181L20.0471 29.5426L20.865 29.2068L21.6567 28.8742L22.4532 28.4781L23.2498 28.0656L24.0463 27.6108V26.349L23.3715 26.706L22.71 27.019L22.0352 27.3157L21.3555 27.5896L20.6593 27.826L19.9879 28.0428L19.3081 28.2433L18.6334 28.4015L17.952 28.5384L17.2773 28.6378L16.6223 28.7389L15.9442 28.7764L15.2875 28.8139H14.6506L13.9923 28.796L13.3752 28.7389L12.7415 28.6541L12.1408 28.5596L11.5467 28.4373L10.9658 28.2841L10.3914 28.0852L9.83511 27.8912L9.29859 27.6483L8.78017 27.394L8.27986 27.1022L7.80423 26.8038L7.32531 26.468L6.88754 26.0914L6.46951 25.7002L6.08934 25.2845L5.71246 24.8525L5.37343 24.3781L5.03605 23.8613L4.75462 23.3152L4.49953 22.7609L4.279 22.1855L4.09961 21.5986L3.96301 21.0019L3.85933 20.3922L3.80172 19.7809L3.76223 19.15V18.5191L3.80172 17.8915L3.87743 17.2345L4.00251 16.6085L4.13746 15.9532L4.3185 15.3027L4.51928 14.6523L4.77766 14.0247L5.03605 13.3742L5.35533 12.7384L5.69436 12.1108L6.04984 11.4799L6.46951 10.8637L6.88754 10.2573L7.34671 9.66549L7.84373 9.07373L8.36215 8.49826L8.91842 7.92769L9.49608 7.37342L10.0886 6.84524L10.7271 6.33498L11.3838 5.84103L12.0635 5.36664L12.758 4.91181L13.4755 4.49774L14.1947 4.10323L14.9321 3.74784L15.6447 3.43484L16.377 3.13652L17.1193 2.88546L17.8549 2.64256L18.5906 2.45183L19.3312 2.26762L20.0471 2.15187L20.7811 2.03613L21.5003 1.95625L22.2162 1.91549H22.9124L23.6052 1.93342L24.2866 1.97418L24.9647 2.05406L25.6213 2.17143L26.2549 2.30837L26.8935 2.48932L27.4893 2.68332L28.0883 2.92296L28.661 3.17564L29.2206 3.47886L29.739 3.78697L30.236 4.14398L30.7347 4.54012L31.1708 4.95094L31.6103 5.38131L32.0102 5.85896L32.364 6.37411L32.6619 6.8273L32.9219 7.2805L33.1441 7.7337L33.3383 8.22439L33.4996 8.69878L33.6379 9.19273L33.7366 9.70788L33.8353 10.2181L33.8979 10.7512L33.9176 11.2859L33.9407 11.8369L33.9176 12.3863L33.8781 12.9601L33.8172 13.5307L33.7366 14.0997L33.6379 14.6898L33.4996 15.3272L33.3186 15.9532L33.1211 16.5678L32.9055 17.1563L32.6619 17.7334L32.3838 18.3007L32.0875 18.8533L31.765 19.4092L31.4111 19.9374L31.031 20.4738L30.6376 20.9824L30.1966 21.4959L29.716 21.9866L29.2206 22.4838L28.7038 22.9598L28.1443 23.4277L28.4043 23.4913L28.661 23.5288L28.9227 23.5663L29.2009 23.607L29.5004 23.6478L29.7966 23.6885H30.0978H30.394H30.8368L31.2498 23.669L31.6893 23.6266L32.1056 23.5467L32.4052 23.4913L32.7261 23.4277L33.024 23.3527L33.3186 23.2516L33.6 23.1554L33.8979 23.0332L34.1744 22.9191L34.4542 22.7805L34.7339 22.6419L34.9923 22.5017L35.2491 22.3436L35.5124 22.1708L35.7691 22.0127L36.0078 21.8285L36.2464 21.6345L36.485 21.4388L36.7039 21.24L36.9244 21.0264L37.1417 20.808L37.3441 20.5895L37.54 20.3531L37.744 20.1184L37.9185 19.8787L38.0765 19.6261L38.2575 19.3685L38.3974 19.1076L38.5571 18.8533L38.6986 18.5811L38.8171 18.3007L38.9356 18.0301L39.0541 17.7334L39.1545 17.4579Z" fill="#E30801"/>
<path d="M66.6618 23.689H66.7211H66.7408H66.805H67.2806L67.7546 23.6482L68.2138 23.5895L68.673 23.4917L69.1305 23.3906L69.5666 23.2749L70.0077 23.1119L70.4422 22.9603L70.8618 22.7614L71.2617 22.5641L71.6584 22.3278L72.055 22.0914L72.4154 21.8289L72.7742 21.5616L73.133 21.2616L73.4523 20.9453L72.7133 23.2521H79.0791L84.5958 6.45117H78.1262L75.1639 15.582L75.1244 15.6993L75.0042 16.0971L74.8808 16.3873L74.7458 16.6693L74.5846 16.9252L74.4019 17.1779L74.2077 17.4192L73.9871 17.6344L73.7683 17.8512L73.5296 18.0305L73.2745 18.2098L72.9898 18.3647L72.7133 18.4805L72.4154 18.6044L72.1159 18.6973L71.8164 18.7772L71.4987 18.8179L71.1614 18.8538L71.0198 18.8326L70.8832 18.7951L70.7417 18.756L70.6051 18.6973L70.4849 18.6435L70.3648 18.5603L70.2661 18.4805L70.1624 18.3859L70.0686 18.262L69.9879 18.1642L69.927 18.0305L69.8711 17.9083L69.8102 17.7713L69.7904 17.6132L69.7674 17.473L69.7476 17.3198L69.7904 17.0622L69.8464 16.803L73.1906 6.45117H66.7589L62.921 18.2473L62.8568 18.4397L62.8223 18.6435L62.7811 18.8179L62.7581 19.0119L62.6988 19.2499L62.6626 19.4863L62.6248 19.7031V19.9379L62.6429 20.3144L62.6988 20.6731L62.7811 21.0268L62.8996 21.3627L63.0411 21.6724L63.2189 21.987L63.4361 22.2674L63.6534 22.525L63.915 22.7614L64.1948 22.9766L64.4911 23.1738L64.8136 23.3336L65.1477 23.4542L65.49 23.5471L65.8422 23.627L66.2224 23.6482L66.3804 23.689H66.5845H66.6223H66.6618Z" fill="white"/>
<path d="M58.3013 6.45095H58.2668H58.219L57.7253 6.47051L57.2447 6.50963L56.7872 6.56995L56.3132 6.64983L55.8541 6.74927L55.413 6.88458L54.9769 7.02152L54.5407 7.19758L54.1227 7.39483L53.7211 7.59535L53.3245 7.83173L52.946 8.06974L52.5675 8.34362L52.2301 8.62238L51.8927 8.93701L51.5718 9.25164L54.3432 0.474609H47.9116L40.4678 23.6887H46.8945L49.8009 14.5726L49.8421 14.5172V14.4765L49.982 14.0396L50.1037 13.7706L50.2601 13.4918L50.4181 13.2342L50.5975 12.9799L50.7785 12.7387L50.9925 12.5251L51.2344 12.3262L51.473 12.1322L51.7133 11.9529L51.9914 11.7964L52.2679 11.679L52.551 11.5584L52.8472 11.4589L53.1649 11.3807L53.4858 11.3253L53.8067 11.3073L53.9647 11.3253L54.103 11.3595L54.2412 11.4003L54.3795 11.4589L54.5012 11.5356L54.6197 11.6187L54.7399 11.6937L54.8353 11.7964L54.9357 11.9121L55.018 12.0132L55.0954 12.1501L55.1579 12.2692L55.1958 12.4045L55.2352 12.5463L55.2599 12.6849V12.8202L55.2352 13.0973L55.176 13.3565L51.7972 23.6887H58.2668L62.0816 11.9121L62.1425 11.7377L62.2051 11.5584L62.2413 11.3595L62.2627 11.1639L62.3203 10.9438L62.3614 10.709L62.3779 10.4547L62.4026 10.2184L62.3779 9.84503L62.3203 9.46846L62.2413 9.1359L62.1244 8.79844L61.9648 8.48381L61.7854 8.19038L61.5632 7.89042L61.3262 7.63774L61.0876 7.39483L60.8095 7.18291L60.5132 7.00359L60.1939 6.82752L59.8549 6.70852L59.5159 6.61071L59.1571 6.53083L58.7802 6.48844H58.6025L58.4428 6.45095H58.3655H58.3013Z" fill="white"/>
<path d="M64.8515 29.357V28.6315H66.6816V30.9562H66.0035V30.7003L65.7468 30.8177L65.4687 30.9187L65.3271 30.9562L65.1625 30.979L65.0259 30.9937H64.8844L64.5454 30.979L64.2491 30.935L64.1093 30.8975L63.971 30.8388L63.8525 30.7818L63.734 30.7198L63.6106 30.6449L63.4921 30.5568L63.3901 30.4851L63.293 30.3856L63.2156 30.2618L63.1333 30.1688L63.0576 30.0466L62.9967 29.9145L62.8749 29.6553L62.7943 29.357L62.7531 29.0831L62.7367 28.7701L62.7531 28.4441L62.8173 28.1343L62.8947 27.849L63.0181 27.5752L63.0938 27.4578L63.1695 27.3404L63.2535 27.2263L63.3539 27.1252L63.4526 27.0225L63.5744 26.9247L63.6945 26.8465L63.8311 26.7878L64.027 26.6916L64.2689 26.6101L64.5454 26.5693H65.0259L65.2037 26.5954L65.3683 26.6101L65.5328 26.6492L65.6974 26.6916L65.834 26.7438L65.9558 26.8285L66.0743 26.9068L66.1747 26.9834L66.2718 27.0877L66.3557 27.179L66.4347 27.3013L66.494 27.4187L66.5549 27.5344L66.5944 27.673L66.6322 27.836L65.9147 27.9746L65.8521 27.8116L65.7748 27.673L65.6777 27.5605L65.5575 27.4578L65.393 27.3795L65.2284 27.3225L65.049 27.2834H64.6902L64.5734 27.3013L64.4318 27.3404L64.3117 27.3795L64.1932 27.4382L64.0928 27.4969L63.9941 27.5752L63.9134 27.6583L63.813 27.7773L63.7538 27.8898L63.6978 28.0121L63.6517 28.1474L63.6139 28.3104L63.5941 28.4473L63.5777 28.6104V28.9364L63.5941 29.0994L63.6139 29.2347L63.6517 29.3977L63.6978 29.5363L63.7538 29.6553L63.8344 29.7776L63.9134 29.895L63.9941 29.9683L64.0928 30.0466L64.1932 30.1036L64.3117 30.1688L64.4318 30.208L64.5734 30.2438L64.6902 30.2618H64.8252L65.049 30.2438L65.2284 30.2275L65.393 30.208L65.5575 30.1688L65.6777 30.1036L65.7929 30.0466L65.8982 29.9683L66.0134 29.895V29.357H64.8515ZM57.7846 28.8076V28.6707L57.8043 28.5077L57.8455 28.3691L57.8619 28.2061L57.9804 27.8914L58.1236 27.598L58.201 27.4594L58.2849 27.3241L58.382 27.2051L58.4988 27.0894L58.6223 26.985L58.7408 26.8889L58.879 26.809L58.9959 26.7324L59.2197 26.672L59.4336 26.6117L59.6525 26.571H60.1462L60.3618 26.6117L60.5824 26.672L60.7832 26.7454L60.9593 26.8302L61.1386 26.9459L61.3032 27.06L61.4579 27.2231L61.5797 27.3763L61.7015 27.5312L61.797 27.7056L61.899 27.9077L61.9582 28.1311L61.9961 28.343L62.0405 28.5549V29.0309L61.9961 29.2445L61.9582 29.4613L61.899 29.6602L61.797 29.8558L61.7015 30.0368L61.5978 30.2128L61.4579 30.3759L61.3197 30.5112L61.1403 30.6302L60.9839 30.7508L60.7848 30.8486L60.584 30.9073L60.3635 30.966L60.1479 31.0035H59.6871L59.4682 30.966L59.2493 30.9073L59.0518 30.8486L58.851 30.7508L58.6749 30.6546L58.5104 30.5112L58.3688 30.3759L58.2306 30.2128L58.1104 30.0498L58.0084 29.8738L57.9294 29.6798L57.8701 29.4809L57.8109 29.269L57.7912 29.0456L57.7846 28.8076ZM58.6601 28.7897L58.6815 29.0668L58.7408 29.3195L58.7803 29.4564L58.8379 29.5771L58.8971 29.6977L58.9761 29.7906L59.0584 29.895L59.1571 29.9911L59.2559 30.0678L59.376 30.133L59.4978 30.1868L59.6147 30.2275L59.7792 30.2438L59.9191 30.2618L60.0837 30.2438L60.2203 30.2275L60.3618 30.1868L60.4803 30.133L60.5988 30.0678L60.6992 29.9911L60.7782 29.895L60.8786 29.7906L60.9379 29.6765L60.9988 29.5591L61.0531 29.4369L61.0959 29.3195L61.1551 29.0424L61.1781 28.7701L61.1551 28.4914L61.0959 28.237L61.0531 28.1001L60.9988 27.9795L60.9379 27.8849L60.8786 27.7626L60.7996 27.6665L60.6992 27.5833L60.5988 27.5051L60.4803 27.4464L60.3618 27.3877L60.2203 27.3486L60.0837 27.3306L59.9191 27.3095L59.7546 27.3306L59.613 27.3486L59.4731 27.3877L59.3546 27.4464L59.2542 27.5051L59.1341 27.5833L59.0567 27.6811L58.9745 27.7855L58.8955 27.8849L58.8362 28.0007L58.7786 28.1131L58.7391 28.237L58.6799 28.5093L58.6601 28.7897ZM45.4808 30.935V26.646H46.2214L48.2111 29.52V26.646H49.0093V30.9415H48.2309L46.2757 28.149V30.9415L45.4808 30.935ZM40.8249 30.935V26.646H41.6857V28.3397H43.6129V26.646H44.4473V30.9415H43.6129V29.0733H41.6873V30.9415L40.8249 30.935ZM32.3262 30.935V26.646H35.4531V27.3747H33.1836V28.3218H35.2919V29.0489H33.1836V30.2145H35.5338V30.9415L32.3262 30.935ZM68.4343 30.935V29.1304L66.9005 26.646H67.8978L68.8738 28.3397L69.8464 26.646H70.824L69.2868 29.15V30.9432L68.4343 30.935ZM54.7745 30.935V26.6851H55.6352V30.2145H57.541V30.9415L54.7745 30.935ZM49.8372 28.8076V28.6707L49.8536 28.5077L49.8767 28.3691L49.9161 28.2061L50.0149 27.8914L50.1564 27.598L50.2535 27.4594L50.3342 27.3241L50.4313 27.2051L50.5531 27.0894L50.6502 26.985L50.7901 26.8889L50.9102 26.809L51.0501 26.7324L51.2492 26.672L51.4648 26.6117L51.7067 26.571H52.2005L52.421 26.6117L52.6366 26.672L52.8374 26.7454L53.0184 26.8302L53.1962 26.9459L53.3607 27.06L53.5253 27.2231L53.6438 27.3763L53.759 27.5312L53.8611 27.7056L53.9401 27.9077L54.0207 28.1311L54.0602 28.343L54.0997 28.5549V29.0309L54.0602 29.2445L54.0207 29.4613L53.9401 29.6602L53.8611 29.8558L53.759 30.0368L53.6438 30.2128L53.5253 30.3759L53.3607 30.5112L53.1962 30.6302L53.0184 30.7508L52.8374 30.8486L52.6366 30.9073L52.421 30.966L52.2005 31.0035H51.7446L51.5027 30.966L51.3085 30.9073L51.1044 30.8486L50.9069 30.7508L50.7259 30.6546L50.5695 30.5112L50.428 30.3759L50.2848 30.2128L50.1712 30.0498L50.0709 29.8738L49.9951 29.6798L49.9129 29.4809L49.8734 29.269L49.8339 29.0456L49.8372 28.8076ZM50.7111 28.7897L50.7292 29.0668L50.7901 29.3195L50.8312 29.4564L50.8921 29.5771L50.948 29.6977L51.0336 29.7906L51.1077 29.895L51.2064 29.9911L51.3118 30.0678L51.4056 30.133L51.5471 30.1868L51.6672 30.2275L51.8318 30.2438L51.9734 30.2618L52.1379 30.2438L52.2745 30.2275L52.4177 30.1868L52.5329 30.133L52.6531 30.0678L52.7551 29.9911L52.8357 29.895L52.9147 29.7906L52.9954 29.6765L53.0546 29.5591L53.1122 29.4369L53.1501 29.3195L53.2126 29.0424L53.2291 28.7701L53.2126 28.4914L53.1501 28.237L53.1122 28.1001L53.0546 27.9795L52.9937 27.8898L52.9378 27.7675L52.8341 27.6714L52.7535 27.5882L52.6514 27.51L52.5313 27.4513L52.4161 27.3926L52.2729 27.3535L52.1363 27.3355L51.9717 27.3143L51.8071 27.3355L51.6705 27.3535L51.529 27.3926L51.4089 27.4513L51.292 27.51L51.1916 27.5882L51.111 27.686L51.0139 27.7904L50.9513 27.8898L50.8954 28.0055L50.8345 28.118L50.7933 28.2419L50.7325 28.5142L50.7111 28.7897ZM39.11 29.357L39.9889 29.6146L39.9477 29.7906L39.8753 29.9536L39.8111 30.0873L39.7288 30.2259L39.6268 30.3645L39.5314 30.459L39.431 30.5552L39.3092 30.6612L39.1923 30.7394L39.0541 30.816L38.9158 30.878L38.7743 30.9171L38.6097 30.9546L38.4534 30.9774L38.2888 30.9921H37.8675L37.6881 30.9872L37.4906 30.9269L37.2898 30.8666L37.1104 30.7899L36.9327 30.6889L36.7681 30.565L36.6299 30.4346L36.4916 30.2715L36.3731 30.0987L36.2727 29.9047L36.1707 29.7075L36.1114 29.4874L36.0736 29.2494L36.0341 29.0358V28.7995L36.0506 28.5761L36.0736 28.343L36.1114 28.1229L36.1921 27.9077L36.2727 27.7137L36.3731 27.5149L36.4916 27.3404L36.6299 27.1774L36.7944 27.0356L36.959 26.9198L37.1351 26.8204L37.3096 26.7209L37.5169 26.6623L37.7342 26.6231L37.9531 26.5824H38.3875L38.5702 26.6085L38.7677 26.6443L38.9323 26.7046L39.11 26.7568L39.2483 26.8416L39.4129 26.9378L39.5297 27.0356L39.6943 27.1986L39.8128 27.3795L39.9132 27.5947L40.0119 27.8311L39.0952 28.0479L39.0574 27.8963L38.9784 27.7545L38.8796 27.6159L38.7578 27.5165L38.6196 27.4382L38.4814 27.3795L38.3168 27.3421L38.1325 27.3209L38.0156 27.3421H37.8955L37.7753 27.3795L37.6782 27.4187L37.5762 27.4578L37.4774 27.5165L37.3984 27.5801L37.3129 27.6779L37.219 27.7969L37.1384 27.9094L37.0775 28.0479L37.0199 28.211L36.9804 28.3463L36.9409 28.5093L36.9228 28.6723V28.9853L36.9409 29.1483L36.9804 29.2902L37.0199 29.4418L37.0775 29.5836L37.1384 29.701L37.219 29.8363L37.3129 29.939L37.3984 30.0156L37.4774 30.0922L37.5762 30.1574L37.6782 30.1933L37.7753 30.2324L37.8774 30.2683L37.9959 30.2862H38.1127L38.2921 30.2683L38.4567 30.2324L38.6212 30.1721L38.7595 30.071L38.8813 29.939L38.98 29.776L39.059 29.5983L39.11 29.357ZM29.3819 30.935V27.3747H28.1426V26.646H31.4868V27.3747H30.2361V30.9415L29.3819 30.935Z" fill="white"/>
<path d="M21.2172 15.4416L20.8634 15.5622L20.4832 15.6584L20.1228 15.7758L19.7443 15.8769L19.3625 15.9535L18.9922 16.0595L18.6136 16.154L18.2351 16.2355L17.9965 16.2926L17.794 16.3496L16.9712 16.5844L16.2931 16.8045L16.0166 16.9267L15.7582 17.0245L15.5377 17.1419L15.36 17.2365L15.1954 17.3571L15.0555 17.4745L14.9205 17.6147L14.779 17.7532L14.6786 17.9163L14.5782 18.0565L14.4778 18.2195L14.4219 18.3825L14.361 18.5781L14.3198 18.7558V18.9188L14.3396 19.0819L14.3807 19.2449L14.4416 19.3867L14.519 19.5204L14.598 19.6443L14.7395 19.778L14.858 19.897L14.9979 19.9752L15.1625 20.0372L15.3386 20.0763L15.5393 20.1154L15.7796 20.1366H16.0183L16.456 20.0958L16.9169 20.016L17.1324 19.9752L17.3497 19.9182L17.5719 19.8595L17.7891 19.778L17.9915 19.6997L18.1907 19.6035L18.4491 19.4617L18.7074 19.328L18.9477 19.1911L19.1452 19.0281L19.3427 18.8487L19.5419 18.6857L19.7064 18.5097L19.871 18.3336L20.0356 18.1543L20.2002 17.9375L20.3368 17.719L20.4799 17.481L20.5984 17.243L20.7186 16.9919L20.8354 16.7327L20.9375 16.4572L21.2172 15.4416ZM17.794 13.4316L18.4129 13.3126L18.9527 13.1984L19.3888 13.0745L19.7262 12.9979L20.3203 12.861L20.921 12.7078L21.5382 12.5252L22.1537 12.3116L22.2294 12.1323L22.3166 11.953L22.3742 11.7769L22.4137 11.5748L22.4335 11.3808L22.4516 11.1851L22.4335 10.9863L22.4137 10.7841L22.2146 10.6879L21.9908 10.5934L21.7785 10.4956L21.5563 10.4157L21.3357 10.3358L21.1366 10.295L20.9375 10.2396L20.7367 10.2184L20.3993 10.1972H20.0455L19.7048 10.2396L19.3872 10.295L19.058 10.3782L18.742 10.4695L18.4458 10.5934L18.1874 10.7287L17.9882 10.864L17.7858 10.9863L17.5291 11.2014L17.2477 11.459L16.9876 11.7851L16.7325 12.1404L10.6432 11.4884L10.8835 11.1118L11.1221 10.7597L11.3607 10.4336L11.5961 10.1418L11.8495 9.85978L12.0668 9.6071L12.3038 9.36746L12.5622 9.15553L12.8024 8.91752L13.0806 8.69907L13.3307 8.49041L13.6089 8.29315L13.91 8.09753L14.2079 7.89864L14.5058 7.72258L14.8234 7.55956L15.1444 7.38024L15.4735 7.24656L15.8125 7.11125L16.1516 6.99225L16.5136 6.86998L16.8823 6.75587L17.2658 6.67599L17.6459 6.59937L18.064 6.51623L18.4803 6.47547L18.9 6.41842L19.3197 6.38092L19.7542 6.35484L20.1722 6.3418H21.6237L22.2031 6.35484L22.761 6.38092L23.2942 6.41842L23.8143 6.45754L24.308 6.51623L24.7622 6.57655L25.1622 6.63849L25.5802 6.71511L25.9768 6.81456L26.3586 6.94823L26.7158 7.11125L27.0531 7.30362L27.3708 7.54163L27.6736 7.78127L27.9501 8.07471L28.2101 8.36977L28.4241 8.68603L28.6265 9.04142L28.7828 9.40006L28.9244 9.76849L29.0017 10.1663L29.0643 10.5803L29.0807 10.9928V11.208L29.0643 11.5422L29.0412 11.7427L29.0017 11.9383L28.9639 12.1176L28.9046 12.3181L28.6857 13.0273L28.4076 13.8538L28.1081 14.7993L27.7493 15.8834L27.356 17.106L26.8935 18.508L26.3998 20.0649L25.8468 21.8206L25.7875 22.0195L25.7678 22.22L25.748 22.414L25.7678 22.608L25.7875 22.7857L25.8254 22.9666L25.8632 23.1182L25.9225 23.2584H19.7262V23.2226L19.6472 23.0824L19.5863 22.9438L19.5303 22.8069L19.4875 22.6683L19.4283 22.3504V21.8336L19.4497 21.6608L19.4875 21.4815L19.5468 21.2908L19.109 21.6413L18.668 21.9363L18.2351 22.1841L17.794 22.4221L17.4978 22.5852L17.2147 22.7237L16.9514 22.8362L16.6733 22.9324L16.2141 23.1068L15.7204 23.2699L15.2003 23.4052L14.6835 23.503L14.1437 23.604L13.5891 23.666L13.0526 23.6856H12.075L11.6767 23.666L11.2998 23.6236L10.9592 23.5861L10.6646 23.5258L10.3651 23.4639L10.105 23.3872L9.86638 23.2878L9.64585 23.1949L9.42696 23.0726L9.25087 22.9569L9.06983 22.8134L8.89044 22.6781L8.72587 22.5151L8.58598 22.3521L8.44773 22.1988L8.3243 22.0146L8.20745 21.8516L8.10706 21.6788L8.00996 21.4946L7.92767 21.3022L7.86842 21.1017L7.80917 20.9044L7.74828 20.7055L7.71207 20.4904L7.69068 20.2752L7.67093 20.0567V19.8415L7.69068 19.6052L7.72853 19.3655L7.77132 19.1275L7.83057 18.8781L7.91121 18.6221L7.98856 18.3629L8.08895 18.1412L8.18605 17.9081L8.30784 17.6897L8.40823 17.494L8.54319 17.2968L8.66662 17.0979L8.96121 16.7458L9.29036 16.41L9.62775 16.0937L9.98488 15.7791L10.4045 15.4824L10.8818 15.2281L11.3986 14.9688L11.9532 14.7325L12.577 14.514L13.2501 14.3168L13.9676 14.1391L14.7428 13.9761L15.1789 13.8978L15.6183 13.8212L16.015 13.7446L16.4116 13.6826L16.7885 13.6044L17.1506 13.5424L17.4682 13.4854L17.794 13.4316Z" fill="white"/>
<path d="M97.1168 15.441L96.758 15.5616L96.3811 15.6578L95.9976 15.7752L95.6422 15.8762L95.262 15.9529L94.8884 16.0588L94.5099 16.1534L94.1297 16.2349L93.8927 16.2919L93.6936 16.349L92.8592 16.5837L92.2009 16.8022L91.9013 16.9245L91.6594 17.0223L91.4438 17.1396L91.2644 17.2342L91.1081 17.3548L90.9435 17.4722L90.8085 17.6124L90.6835 17.751L90.5633 17.914L90.4646 18.0542L90.3872 18.2172L90.3263 18.3802L90.2654 18.5759L90.2309 18.7535V18.9166L90.2473 19.0796L90.2868 19.2426L90.3444 19.3844L90.4251 19.5181L90.5057 19.642L90.6242 19.7757L90.7658 19.8947L90.904 19.9958L91.0686 20.0528L91.2513 20.1131L91.4487 20.1555H91.9227L92.3622 20.1131L92.7785 20.0349L93.1998 19.9371L93.58 19.8213L93.9783 19.6583L94.3371 19.479L94.6761 19.2638L95.0053 19.0454L95.3015 18.791L95.601 18.5155L95.8594 18.2237L96.098 17.8977L96.3153 17.557L96.5194 17.2065L96.6839 16.8332L96.8238 16.4566L97.1168 15.441ZM93.6936 13.4309L94.3091 13.3119L94.8292 13.1978L95.262 13.0739L95.6257 12.9973L96.2198 12.8604L96.8189 12.7071L97.4163 12.5245L98.0532 12.311L98.1322 12.1317L98.2096 11.9523L98.2688 11.7763L98.3099 11.5741L98.333 11.3801V10.9677L98.3099 10.7704L98.1125 10.6677L97.8919 10.5732L97.6763 10.4949L97.4542 10.415L97.0164 10.2944L96.6362 10.2178L96.2791 10.1966H95.9499L95.6076 10.239L95.2669 10.2944L94.9542 10.3775L94.6514 10.4688L94.3552 10.5927L94.0787 10.728L93.8762 10.8634L93.6985 10.9856L93.4171 11.2008L93.1505 11.4584L92.8937 11.7844L92.6172 12.1398L86.5411 11.4877L86.783 11.1111L87.02 10.759L87.2422 10.433L87.4775 10.1412L87.7194 9.85914L87.9614 9.5869L88.2016 9.35052L88.4419 9.1337L88.6987 8.89406L88.9768 8.67887L89.2352 8.46369L89.5117 8.26317L89.8145 8.06755L90.1107 7.88986L90.4086 7.71379L90.7378 7.53447L91.0554 7.37145L91.3697 7.23777L91.7302 7.10247L92.0692 6.98346L92.4296 6.86119L92.8049 6.76501L93.1636 6.6672L93.5636 6.59058L93.9816 6.50744L94.3963 6.44875L94.8127 6.40963L95.2324 6.37213L95.6734 6.34605L96.0898 6.33301H97.543L98.1207 6.34605L98.6753 6.37213L99.2135 6.40963L99.7368 6.44875L100.211 6.50744L100.667 6.56776L101.09 6.62971L101.504 6.70633L101.883 6.80577L102.261 6.93944L102.637 7.10247L102.976 7.29483L103.295 7.53284L103.591 7.77248L103.873 8.06592L104.133 8.36098L104.35 8.67724L104.549 9.03263L104.714 9.39127L104.834 9.7597L104.933 10.1575L104.993 10.5715L105.015 10.984L104.993 11.1992L104.974 11.5334L104.893 11.9295L104.796 12.3093L104.556 13.0185L104.299 13.845L103.998 14.7905L103.669 15.8746L103.27 17.0973L102.829 18.4992L102.336 20.0561L101.758 21.8118L101.715 21.9748L101.697 22.159L101.676 22.3563V22.5536L101.715 22.7508L101.736 22.9269L101.799 23.1013L101.855 23.2415H95.6191V23.2056L95.5385 23.0654L95.4809 22.9269L95.4167 22.7899L95.3788 22.6514L95.3196 22.3335L95.2965 22.0189L95.3196 21.8167L95.3344 21.6439L95.3788 21.4646L95.4381 21.2738L95.0003 21.6243L94.5625 21.9194L94.1116 22.1835L93.6936 22.4215L93.3957 22.5845L93.1159 22.7231L92.8592 22.8454L92.5777 22.9415L92.1005 23.116L91.6067 23.279L91.113 23.4143L90.5716 23.5121L90.035 23.6132L89.4952 23.6751L88.9389 23.6947H87.9647L87.5845 23.6751L87.2076 23.6328L86.8669 23.5953L86.5509 23.5349L86.2728 23.473L86.0144 23.3964L85.7774 23.2969L85.5338 23.204L85.3413 23.0817L85.1389 22.966L84.9578 22.8225L84.8031 22.6872L84.6386 22.5242L84.5036 22.3612L84.339 22.208L84.2205 22.0237L84.1218 21.8607L84.0247 21.6879L83.9243 21.5037L83.8453 21.3113L83.763 21.1108L83.7038 20.9136L83.6659 20.7147L83.6248 20.4995L83.605 20.2843L83.5836 20.0659V19.8507L83.605 19.6143L83.6248 19.3747L83.6807 19.1366L83.7219 18.8872L83.8042 18.6313L83.9013 18.3721L84.0049 18.1504L84.1053 17.9173L84.1991 17.6988L84.3209 17.5032L84.4394 17.3059L84.576 17.107L84.8788 16.7549L85.1784 16.4191L85.5075 16.1028L85.8877 15.7882L86.309 15.4915L86.7583 15.2372L87.2784 14.978L87.856 14.7416L88.4748 14.5232L89.1332 14.3259L89.8672 14.1482L90.6456 13.9852L91.0817 13.9069L91.4965 13.8303L91.9145 13.7537L92.3144 13.6918L92.6732 13.6135L93.0353 13.5516L93.3644 13.4945L93.6936 13.4309Z" fill="white"/>
</g>
<defs>
<clipPath id="clip0_149_1177">
<rect width="105" height="31" fill="white"/>
</clipPath>
</defs>
</svg>
