<svg width="67" height="53" viewBox="0 0 67 53" fill="none" xmlns="http://www.w3.org/2000/svg">
<g clip-path="url(#clip0_149_1191)">
<path d="M30.6785 14.6999C30.2698 10.9725 34.1483 7.9794 39.3381 8.02061C44.5243 8.06181 49.064 11.1149 49.4689 14.8423C49.8776 18.5734 45.9991 21.5628 40.8093 21.5216C35.6231 21.4841 31.0834 18.4273 30.6785 14.6999ZM50.4348 15.8575C49.963 11.231 44.7435 7.44745 38.7697 7.39501C32.7997 7.34631 28.338 11.055 28.8061 15.6777C29.2742 20.3004 34.4975 24.0914 40.4712 24.1401C46.4412 24.1888 50.9066 20.4802 50.4385 15.8575" fill="#FAB382"/>
<path d="M41.4222 24.2335C38.4799 27.3353 33.7582 27.5863 30.8753 24.8067C27.9888 22.0271 28.0408 17.2583 30.9831 14.1602C33.9254 11.0622 38.6471 10.8037 41.5262 13.5871C44.4091 16.3667 44.3608 21.1355 41.4185 24.2335M30.515 14.0628C27.0972 17.6629 27.0378 23.2034 30.3887 26.4363C33.7396 29.6692 39.2267 29.3695 42.6482 25.7694C46.0697 22.1694 46.1291 16.6289 42.7745 13.396C39.4273 10.1631 33.9365 10.4628 30.515 14.0628Z" fill="#F7995B"/>
<path d="M30.8308 2.46849C36.9494 0.157142 43.0011 2.49472 44.3459 7.69057C45.6908 12.8864 41.8197 18.9739 35.7049 21.2852C29.5863 23.6003 23.5345 21.259 22.1897 16.0631C20.8411 10.8673 24.7122 4.78359 30.8308 2.46849ZM25.1505 4.45393C18.7979 9.51868 17.1856 16.8611 21.5396 20.8469C25.8935 24.8365 34.5718 23.9637 40.917 18.8952C47.2659 13.8305 48.882 6.48807 44.5243 2.50221C40.1703 -1.4874 31.4958 -0.614557 25.1505 4.45393Z" fill="#F27320"/>
<path d="M10.2348 33.0371V44.4702H8.46648V38.439H1.76834V44.4702H0V33.0371H1.76834V36.8731H8.46648V33.0371H10.2348Z" fill="#000500"/>
<path d="M14.4811 44.4697C13.6563 44.4697 13.0025 44.2337 12.5195 43.7692C12.0292 43.3009 11.784 42.7016 11.784 41.9636V41.353C11.784 40.6075 12.0292 40.0006 12.5195 39.5323C13.0025 39.0566 13.6563 38.8168 14.4811 38.8168H19.0988V38.7719C19.0988 37.8578 18.601 37.4008 17.6091 37.4008H12.4787V35.8799H17.5831C18.6456 35.8799 19.4554 36.1533 20.0164 36.7003C20.5848 37.2285 20.8709 37.9927 20.8709 39.0004V42.031C20.8709 42.8064 20.6108 43.4208 20.0907 43.8666C19.6189 44.2749 18.9539 44.4772 18.0995 44.4772H14.4848V44.4697H14.4811ZM17.7094 40.334H14.9083C14.0018 40.334 13.5523 40.7236 13.5523 41.4991V41.7838C13.5523 42.5517 14.0055 42.9338 14.9083 42.9338H17.7094C18.6344 42.9338 19.0951 42.5517 19.0951 41.7838V41.4991C19.0951 40.7236 18.6344 40.334 17.7094 40.334Z" fill="#000500"/>
<path d="M26.0459 35.8721H27.7845C28.8841 35.8721 29.7497 36.1942 30.3813 36.8423C31.0091 37.4904 31.3249 38.3895 31.3249 39.5433V44.4694H29.5565V39.6332C29.5565 38.9177 29.4191 38.3932 29.1442 38.0673C28.7987 37.6402 28.3046 37.4267 27.6545 37.4267H26.1499C25.5221 37.4267 25.028 37.6402 24.675 38.0673C24.4187 38.397 24.2924 38.9177 24.2924 39.6332V44.4694H22.524V39.5433C22.524 38.3895 22.8398 37.4904 23.4677 36.8423C24.0955 36.1942 24.9574 35.8721 26.0496 35.8721H26.0459Z" fill="#000500"/>
<path d="M39.4793 43.3195C38.8515 44.0837 38.0676 44.4696 37.1351 44.4696H36.0429C35.0584 44.4696 34.2783 44.1549 33.6988 43.5293C33.1489 42.9411 32.874 42.1095 32.874 41.0381V35.876H34.6275V41.0531C34.6275 41.6787 34.7612 42.1395 35.025 42.4242C35.3296 42.7538 35.7271 42.9187 36.2212 42.9187H36.9865C37.4881 42.9187 37.8893 42.7538 38.1976 42.4242C38.4725 42.1357 38.61 41.6787 38.61 41.0531V35.876H40.3486V41.0531C40.3486 41.6787 40.4823 42.1395 40.7461 42.4242C41.0507 42.7538 41.4482 42.9187 41.9423 42.9187H42.7076C43.2092 42.9187 43.6141 42.7538 43.9187 42.4242C44.1936 42.1357 44.3311 41.6787 44.3311 41.0531V35.876H46.0846V41.0381C46.0846 42.1133 45.7985 42.9449 45.2301 43.5293C44.6506 44.1549 43.863 44.4696 42.8711 44.4696H41.7937C40.8798 44.4696 40.1071 44.0875 39.4793 43.3195Z" fill="#000500"/>
<path d="M51.2781 37.4233C50.6503 37.4233 50.1562 37.6369 49.8033 38.0639C49.5469 38.3936 49.4206 38.9143 49.4206 39.6298V44.466H47.6523V33.0029H49.4206V36.3894C49.9333 36.041 50.5165 35.8687 51.1741 35.8687H52.9127C54.0124 35.8687 54.878 36.1909 55.5095 36.8389C56.1373 37.487 56.4531 38.3861 56.4531 39.5399V44.466H54.6848V39.6298C54.6848 38.9143 54.5473 38.3898 54.2724 38.0639C53.9269 37.6369 53.4328 37.4233 52.7827 37.4233H51.2781Z" fill="#000500"/>
<path d="M60.6139 44.4697C59.7892 44.4697 59.1353 44.2337 58.6524 43.7692C58.162 43.3009 57.9131 42.7016 57.9131 41.9636V41.353C57.9131 40.6075 58.1583 40.0006 58.6524 39.5323C59.1353 39.0566 59.7892 38.8168 60.6139 38.8168H65.2279V38.7719C65.2279 37.8578 64.7301 37.4008 63.7382 37.4008H58.6078V35.8799H63.7122C64.7747 35.8799 65.5846 36.1533 66.1455 36.7003C66.7139 37.2285 67 37.9927 67 39.0004V42.031C67 42.8064 66.7399 43.4208 66.2198 43.8666C65.748 44.2749 65.083 44.4772 64.2286 44.4772H60.6139V44.4697ZM63.8422 40.334H61.0411C60.1347 40.334 59.6851 40.7236 59.6851 41.4991V41.7838C59.6851 42.5517 60.1384 42.9338 61.0411 42.9338H63.8422C64.7673 42.9338 65.2279 42.5517 65.2279 41.7838V41.4991C65.2279 40.7236 64.7673 40.334 63.8422 40.334Z" fill="#000500"/>
<path d="M23.854 53.0003C23.7574 53.0003 23.6645 52.9741 23.5754 52.9179C23.4862 52.8617 23.4082 52.7718 23.3413 52.6481L20.8077 47.25H21.755L23.8577 51.7229L25.9604 47.25H26.9077L24.3741 52.6481C24.311 52.7718 24.2329 52.8617 24.1438 52.9179C24.0546 52.9703 23.958 53.0003 23.8614 53.0003H23.854Z" fill="#000500"/>
<path d="M28.468 47.8044C28.468 47.9693 28.4123 48.1004 28.2934 48.2015C28.1783 48.3027 28.0408 48.3514 27.8774 48.3514C27.7139 48.3514 27.5876 48.3027 27.4761 48.2015C27.3647 48.1004 27.3127 47.9693 27.3127 47.8044C27.3127 47.6396 27.3684 47.5085 27.4761 47.4036C27.5876 47.3024 27.7213 47.25 27.8774 47.25C28.0334 47.25 28.1783 47.3024 28.2934 47.4036C28.4086 47.5047 28.468 47.6396 28.468 47.8044ZM27.439 52.9778V48.6698H28.3343V52.9778H27.439Z" fill="#000500"/>
<path d="M32.053 50.4415C32.5285 50.4415 32.8777 50.5164 33.0969 50.6663C33.3755 50.8573 33.5167 51.1533 33.5167 51.5541V51.8763C33.5167 52.2734 33.3755 52.5693 33.0969 52.7566C32.8777 52.9027 32.5248 52.9739 32.0456 52.9739H29.2408V52.1947H32.0456C32.4319 52.1947 32.6251 52.0598 32.6251 51.7901V51.6178C32.6251 51.3443 32.4319 51.2057 32.0456 51.2057H30.593C30.1212 51.2057 29.7757 51.1345 29.5565 50.9884C29.2816 50.7974 29.1442 50.5052 29.1442 50.1081V49.7785C29.1442 49.3701 29.2816 49.0742 29.5565 48.8869C29.7757 48.737 30.1212 48.6621 30.593 48.6621H33.2827V49.4413H30.6079C30.2252 49.4413 30.0358 49.5799 30.0358 49.8534V50.0332C30.0358 50.3029 30.2252 50.4378 30.6004 50.4378H32.053V50.4415Z" fill="#000500"/>
<path d="M35.3445 47.8044C35.3445 47.9693 35.2888 48.1004 35.1736 48.2015C35.0585 48.3027 34.921 48.3514 34.7575 48.3514C34.5941 48.3514 34.4678 48.3027 34.3563 48.2015C34.2449 48.1004 34.1929 47.9693 34.1929 47.8044C34.1929 47.6396 34.2486 47.5085 34.3563 47.4036C34.4678 47.3024 34.6015 47.25 34.7575 47.25C34.9136 47.25 35.0585 47.3024 35.1736 47.4036C35.2888 47.5047 35.3445 47.6396 35.3445 47.8044ZM34.3155 52.9778V48.6698H35.2108V52.9778H34.3155Z" fill="#000500"/>
<path d="M39.0483 52.978H37.7481C37.2243 52.978 36.8119 52.8169 36.5147 52.5134C36.2175 52.2137 36.0652 51.7867 36.0652 51.2285V50.4268C36.0652 49.8649 36.2138 49.4341 36.5147 49.1344C36.8119 48.831 37.2243 48.6774 37.7481 48.6699H39.0483C39.5796 48.6699 39.9919 48.831 40.2891 49.1344C40.5863 49.4341 40.7349 49.8649 40.7349 50.4268V51.2285C40.7349 51.7867 40.5863 52.2175 40.2891 52.5134C39.9882 52.8169 39.5759 52.9705 39.0483 52.978ZM38.9815 52.1988C39.2935 52.1988 39.5238 52.1014 39.6724 51.9066C39.795 51.7417 39.8545 51.502 39.8545 51.1798V50.4756C39.8545 50.1534 39.795 49.9061 39.6724 49.7413C39.5238 49.5428 39.2972 49.4416 38.9815 49.4416H37.8075C37.4992 49.4416 37.2726 49.5428 37.124 49.7413C37.0051 49.9061 36.9456 50.1496 36.9456 50.4756V51.1798C36.9456 51.4982 37.0051 51.7417 37.124 51.9066C37.2688 52.1014 37.4992 52.1988 37.8075 52.1988H38.9815Z" fill="#000500"/>
<path d="M43.2723 48.6699H44.1379C44.684 48.6699 45.1186 48.831 45.4307 49.1569C45.7465 49.4828 45.9025 49.9324 45.9025 50.5093V52.978H45.022V50.5542C45.022 50.1946 44.9552 49.9324 44.8177 49.7675C44.6468 49.554 44.3979 49.4454 44.0747 49.4454H43.3243C43.0085 49.4454 42.767 49.554 42.5887 49.7675C42.4624 49.9324 42.3993 50.1946 42.3993 50.5542V52.978H41.5188V50.5093C41.5188 49.9324 41.6748 49.4791 41.9869 49.1569C42.2989 48.8348 42.7299 48.6699 43.2723 48.6699Z" fill="#000500"/>
</g>
<defs>
<clipPath id="clip0_149_1191">
<rect width="67" height="53" fill="white"/>
</clipPath>
</defs>
</svg>
