<svg width="260" height="31" viewBox="0 0 260 31" fill="none" xmlns="http://www.w3.org/2000/svg">
<g clip-path="url(#clip0_149_1235)">
<path fill-rule="evenodd" clip-rule="evenodd" d="M151.949 0.303967H168.562L167.062 4.13053H153.638C151.414 4.15475 150.155 6.7397 151.414 8.31069C153.477 11.3251 157.014 13.4273 159.211 16.5192C164.007 22.624 159.158 30.579 152.002 30.579H133.756L135.256 26.7541H149.645C151.869 26.7282 153.102 24.1449 151.949 22.5981C150.128 19.7871 146.885 17.0763 144.635 14.4671C140.16 8.96944 143.777 0.405685 151.949 0.303967ZM118.724 30.6291L130.54 0.3298H139.598L127.781 30.6291H118.724ZM163.311 30.6291L175.127 0.3298H184.183L172.394 30.6291H163.311ZM202.082 0.0262584H207.707C212.451 0.228081 215.318 3.92709 215.586 6.99319C215.639 7.72782 215.612 8.43662 215.531 8.96943C215.451 9.32303 215.371 9.6524 215.29 10.0076C214.3 13.9084 212.8 17.8609 210.843 21.434C207.682 27.7422 201.036 31.086 194.873 30.9084H189.247C184.504 30.7066 181.637 27.0076 181.396 23.9415C181.343 23.2068 181.343 22.5222 181.449 21.9652C181.53 21.6358 181.61 21.2806 181.69 20.927C182.629 17.0246 184.13 13.0737 186.112 9.50063C189.273 3.19246 195.919 -0.151346 202.082 0.0262584ZM195.891 8.03136L189.891 23.4603C189.73 23.8155 189.649 24.2208 189.675 24.6261C189.675 26.2729 191.042 27.6405 192.73 27.7664H193.614C196.964 27.6663 199.777 25.8677 200.983 22.9033L206.958 7.47433C207.119 7.11912 207.199 6.71386 207.172 6.3086C207.172 4.66173 205.805 3.29417 204.091 3.16662H203.26C199.911 3.26834 197.097 5.06699 195.891 8.03136ZM121.511 0.3298H126.844L106.239 29.3632C105.704 30.1237 104.819 30.6049 103.8 30.6549H98.4955L95.9759 0.355633H105.033L106.774 21.1547L121.511 0.3298ZM225.097 9.72829L216.926 30.6049H212.263L224.134 0.303967H230.054L238.601 20.7753L246.613 0.303967H251.302L239.433 30.6049H235.146C233.966 30.5532 232.948 29.8444 232.493 28.8563L225.124 10.1093L225.097 9.72829Z" fill="white"/>
<path fill-rule="evenodd" clip-rule="evenodd" d="M37.0295 30.6288L48.8732 0.329544H58.4914L46.6751 30.6288H37.0295ZM28.4546 11.9836L33.0097 0.303711H42.6297L31.537 28.7543C31.537 28.7543 31.537 28.7801 31.5096 28.7801C31.0546 29.8441 29.9821 30.5788 28.6958 30.6046H21.1678L26.821 16.1137H15.3793L9.72605 30.6046H0.107758L11.9241 0.303711H21.5424L16.9872 11.9836H28.4546ZM85.8222 0.303711H93.003L76.9532 11.9578L87.1342 30.6046H78.963C78.9887 30.6046 79.0161 30.6046 79.0434 30.5788C77.7828 30.6546 76.6316 29.9717 76.0962 28.9577C76.0962 28.9577 76.0962 28.9319 76.0688 28.9319V28.9577L69.692 17.2536L67.2801 19.0006L62.7524 30.6288H53.1324L64.9487 0.329544H74.5687L70.1196 11.7043L85.8222 0.303711Z" fill="white"/>
<path fill-rule="evenodd" clip-rule="evenodd" d="M254.812 1.49512H256.608C256.983 1.49512 257.251 1.51934 257.438 1.59684C257.626 1.67272 257.787 1.79866 257.894 1.95043C258 2.12803 258.055 2.33147 258.055 2.53329C258.055 2.81262 257.975 3.04027 257.787 3.21788C257.598 3.39548 257.304 3.52142 256.93 3.57147C257.063 3.64897 257.171 3.69902 257.251 3.77491C257.412 3.90085 257.545 4.07845 257.706 4.28189L258.402 5.32007H257.734L257.196 4.50954C257.036 4.28189 256.902 4.10428 256.794 3.97673C256.688 3.85079 256.608 3.77491 256.528 3.72486C256.447 3.67319 256.367 3.64897 256.286 3.62314C256.232 3.62314 256.126 3.5973 255.991 3.5973H255.347V5.32007H254.812V1.49512ZM255.347 3.19204H256.5C256.741 3.19204 256.93 3.16621 257.09 3.11616C257.224 3.06611 257.332 2.99022 257.412 2.8885C257.492 2.78678 257.518 2.66085 257.518 2.53329C257.518 2.35569 257.438 2.20392 257.304 2.07798C257.171 1.95043 256.955 1.90038 256.634 1.90038H255.347V3.19204Z" fill="white"/>
<path fill-rule="evenodd" clip-rule="evenodd" d="M259.957 3.47202C259.957 5.27066 258.402 6.73994 256.5 6.73994C254.598 6.73994 253.043 5.27066 253.043 3.47202C253.043 1.67337 254.598 0.204102 256.5 0.204102C258.402 0.204102 259.957 1.67337 259.957 3.47202ZM259.555 3.47202C259.555 1.8752 258.189 0.583529 256.5 0.583529C254.812 0.583529 253.445 1.8752 253.445 3.47202C253.445 5.06884 254.812 6.35889 256.5 6.35889C258.189 6.35889 259.555 5.06723 259.555 3.47202Z" fill="white"/>
</g>
<defs>
<clipPath id="clip0_149_1235">
<rect width="260" height="31" fill="white"/>
</clipPath>
</defs>
</svg>
