<svg width="50" height="50" viewBox="0 0 50 50" fill="none" xmlns="http://www.w3.org/2000/svg">
<rect width="50" height="50" fill="#F18221"/>
<path d="M35.5 32.5002H34V25.7502L34.2194 25.9696C34.3604 26.1103 34.5515 26.1893 34.7507 26.1891C34.9499 26.189 35.1408 26.1097 35.2816 25.9687C35.4223 25.8277 35.5013 25.6366 35.5011 25.4374C35.5009 25.2382 35.4216 25.0472 35.2806 24.9065L26.0603 15.689C25.779 15.4079 25.3977 15.25 25 15.25C24.6023 15.25 24.221 15.4079 23.9397 15.689L14.7194 24.9065C14.5788 25.0472 14.4998 25.238 14.4999 25.437C14.5 25.6359 14.5791 25.8267 14.7198 25.9673C14.8606 26.1079 15.0514 26.1868 15.2503 26.1867C15.4493 26.1866 15.64 26.1075 15.7806 25.9668L16 25.7502V32.5002H14.5C14.3011 32.5002 14.1103 32.5793 13.9697 32.7199C13.829 32.8606 13.75 33.0513 13.75 33.2502C13.75 33.4492 13.829 33.6399 13.9697 33.7806C14.1103 33.9212 14.3011 34.0002 14.5 34.0002H35.5C35.6989 34.0002 35.8897 33.9212 36.0303 33.7806C36.171 33.6399 36.25 33.4492 36.25 33.2502C36.25 33.0513 36.171 32.8606 36.0303 32.7199C35.8897 32.5793 35.6989 32.5002 35.5 32.5002ZM17.5 24.2502L25 16.7502L32.5 24.2502V32.5002H28V27.2502C28 27.0513 27.921 26.8606 27.7803 26.7199C27.6397 26.5793 27.4489 26.5002 27.25 26.5002H22.75C22.5511 26.5002 22.3603 26.5793 22.2197 26.7199C22.079 26.8606 22 27.0513 22 27.2502V32.5002H17.5V24.2502ZM26.5 32.5002H23.5V28.0002H26.5V32.5002Z" fill="white"/>
</svg>
