<svg width="159" height="57" viewBox="0 0 159 57" fill="none" xmlns="http://www.w3.org/2000/svg">
<g clip-path="url(#clip0_149_1326)">
<path d="M66.4618 9.6582H74.3323C74.4118 9.6582 74.4118 9.73737 74.4118 9.73737V43.5415C74.4118 43.6207 74.3323 43.6207 74.3323 43.6207H66.4618C66.3823 43.6207 66.3823 43.5415 66.3823 43.5415V9.81654C66.3823 9.73737 66.4618 9.6582 66.4618 9.6582Z" fill="#8B8B8B"/>
<path d="M63.9181 9.6582C63.9976 9.6582 63.9976 9.73737 63.9976 9.81654L53.6626 26.5207C53.5831 26.679 53.5831 26.8374 53.6626 26.9957L63.9976 43.5415C64.0771 43.6207 63.9976 43.6999 63.9976 43.6999H54.2986C54.2191 43.6999 54.1396 43.6207 54.0601 43.5415L47.7796 33.329C47.7001 33.2499 47.6206 33.2499 47.6206 33.329L41.7376 43.5415C41.6581 43.6207 41.5786 43.6999 41.4991 43.6999H32.3566C32.2771 43.6999 32.1976 43.6999 32.2771 43.5415L43.0096 26.1249C43.0891 25.9665 43.0891 25.729 43.0096 25.5707L33.6286 9.81654C33.6286 9.73737 33.6286 9.6582 33.7081 9.6582H43.0891C43.1686 9.6582 43.2481 9.73737 43.2481 9.81654L48.8926 19.3165C48.9721 19.3957 49.0516 19.3957 49.1311 19.3165L54.9346 9.81654C55.0141 9.73737 55.0141 9.6582 55.1731 9.6582H63.9181Z" fill="#8B8B8B"/>
<path d="M113.446 26.9958L130.857 0L159 43.7H139.84L129.108 26.9958H113.446Z" fill="#8B8B8B"/>
<path d="M29.415 9.6582H22.101C22.0215 9.6582 21.942 9.73737 21.8625 9.81654L0 43.6207V43.6999H8.904C8.9835 43.6999 9.063 43.6999 9.063 43.6207L12.0045 39.029C12.0575 38.9763 12.1105 38.9499 12.1635 38.9499H21.465C21.5445 38.9499 21.5445 39.029 21.5445 39.029V43.5415C21.5445 43.6207 21.5445 43.6999 21.624 43.6999H29.415C29.4945 43.6999 29.4945 43.6207 29.4945 43.5415V9.81654C29.4945 9.73737 29.4945 9.6582 29.415 9.6582ZM21.7035 32.2207L15.9 32.2999C15.9 32.2999 15.8205 32.2999 15.9 32.2207L22.0215 22.4832C22.0215 22.404 22.101 22.4832 22.101 22.4832L21.7035 32.2207Z" fill="#8B8B8B"/>
<path d="M79.0231 43.6999H89.2786C90.5506 43.6999 91.9021 43.4624 93.1741 43.0666C97.9441 41.5624 100.409 36.8916 100.409 32.8541C100.409 26.4416 95.4001 24.2249 89.4376 21.6916C88.4041 21.2166 87.1321 20.6624 87.1321 19.2374C87.1321 17.8124 88.4836 17.0999 89.9941 17.0999H98.1031C98.1826 17.0999 98.1826 17.0208 98.1826 17.0208V9.65827C98.1826 9.5791 98.1031 9.5791 98.1031 9.5791H89.5966C82.5211 9.5791 78.3076 13.7749 78.3076 19.6333C78.3076 24.7791 81.5671 27.2333 86.3371 29.1333C89.6761 30.4791 91.8226 31.0333 91.8226 33.7249C91.8226 35.1499 90.9481 36.4958 89.1991 36.4958H78.9436C78.8641 36.4958 78.8641 36.5749 78.8641 36.5749V43.6999H79.0231Z" fill="#8B8B8B"/>
<path d="M104.861 9.5C103.271 9.5 101.999 10.7667 101.999 12.35C101.999 13.9333 103.271 15.2 104.861 15.2C106.451 15.2 107.723 13.9333 107.723 12.35C107.723 10.7667 106.451 9.5 104.861 9.5ZM104.861 14.8833C103.43 14.8833 102.317 13.6958 102.317 12.35C102.317 10.925 103.509 9.81667 104.861 9.81667C106.292 9.81667 107.405 11.0042 107.405 12.35C107.405 13.6958 106.292 14.8833 104.861 14.8833Z" fill="#8B8B8B"/>
<path d="M106.212 13.9334L105.576 12.4292C105.974 12.3501 106.212 11.9542 106.212 11.5584C106.212 11.2417 106.053 11.0042 105.894 10.8459C105.656 10.6876 105.417 10.6084 105.099 10.6084H103.827V13.9334H104.225V12.5084H105.179L105.815 13.9334H106.212ZM104.225 12.1917V11.0042H105.02C105.179 11.0042 105.338 11.0042 105.497 11.0834C105.656 11.1626 105.735 11.3209 105.735 11.5584C105.735 11.7167 105.656 11.8751 105.576 11.9542C105.417 12.1126 105.258 12.1126 105.02 12.1126H104.225V12.1917Z" fill="#8B8B8B"/>
<path d="M6.83678 56.3669C5.88278 56.8419 5.16728 57.0002 4.21328 57.0002C1.58978 57.0002 0.238281 55.3377 0.238281 53.5961C0.238281 51.8544 1.74878 50.1919 4.37228 50.1919C5.32628 50.1919 6.20078 50.3502 6.83678 50.7461V52.2502C6.12128 51.8544 5.32628 51.5377 4.45178 51.5377C3.02078 51.5377 1.98728 52.4086 1.98728 53.5169C1.98728 54.7044 3.02078 55.5752 4.45178 55.5752C5.32628 55.5752 5.96228 55.3377 6.91628 54.8627V56.3669H6.83678Z" fill="#8B8B8B"/>
<path d="M16.6948 57.0002C14.1508 57.0002 12.7993 55.2586 12.7993 53.5961C12.7993 51.9336 14.1508 50.1919 16.6948 50.1919C19.2388 50.1919 20.5903 52.0127 20.5903 53.5961C20.5903 55.3377 19.1593 57.0002 16.6948 57.0002ZM16.6948 51.6169C15.4228 51.6169 14.5483 52.4086 14.5483 53.5961C14.5483 54.7836 15.4228 55.5752 16.6948 55.5752C17.9668 55.5752 18.8413 54.7836 18.8413 53.5961C18.8413 52.4086 17.9668 51.6169 16.6948 51.6169Z" fill="#8B8B8B"/>
<path d="M32.3563 50.3501H33.8668V57.0001H32.1973V52.8834L30.3688 54.9418H30.1303L28.3018 52.8834V57.0001H26.6323V50.3501H28.1428L30.3688 52.8043L32.3563 50.3501Z" fill="#8B8B8B"/>
<path d="M46.4279 50.3501H47.9384V57.0001H46.2689V52.8834L44.4404 54.9418H44.2019L42.3734 52.8834V57.0001H40.5449V50.3501H42.0554L44.2814 52.8043L46.4279 50.3501Z" fill="#8B8B8B"/>
<path d="M60.8971 50.3502V54.0711C60.8971 56.2877 59.3866 57.0002 57.4786 57.0002C55.5706 57.0002 54.0601 56.1294 54.0601 54.0711V50.2711H55.7296V54.0711C55.7296 55.0211 56.4451 55.5752 57.3991 55.5752C58.2736 55.5752 59.1481 55.1002 59.1481 53.9127V50.1919H60.8971V50.3502Z" fill="#8B8B8B"/>
<path d="M74.0942 56.921H72.6632L68.8472 52.646V56.921H67.1777V50.271H68.7677L72.4247 54.3085V50.271H74.0942V56.921Z" fill="#8B8B8B"/>
<path d="M82.2823 56.921H80.6128V50.271H82.2823V56.921Z" fill="#8B8B8B"/>
<path d="M94.5257 56.3669C93.5717 56.8419 92.8562 57.0002 91.8227 57.0002C89.1992 57.0002 87.8477 55.3377 87.8477 53.5961C87.8477 51.8544 89.3582 50.1919 91.9817 50.1919C92.9357 50.1919 93.8102 50.3502 94.4462 50.7461V52.2502C93.7307 51.8544 92.9357 51.5377 92.0612 51.5377C90.6302 51.5377 89.5967 52.4086 89.5967 53.5169C89.5967 54.7044 90.6302 55.5752 92.0612 55.5752C92.9357 55.5752 93.5717 55.3377 94.5257 54.8627V56.3669Z" fill="#8B8B8B"/>
<path d="M106.769 56.921H104.94L104.384 55.5752H101.363L100.886 56.921H99.0571L101.84 50.271H103.827L106.769 56.921ZM102.794 51.8543L101.76 54.3877H103.827L102.794 51.8543Z" fill="#8B8B8B"/>
<path d="M116.786 51.5376H114.321V56.9209H112.652V51.5376H110.187V50.3501H116.865V51.5376H116.786Z" fill="#8B8B8B"/>
<path d="M123.702 56.921H122.033V50.271H123.702V56.921Z" fill="#8B8B8B"/>
<path d="M132.765 57.0002C130.221 57.0002 128.87 55.2586 128.87 53.5961C128.87 51.9336 130.221 50.1919 132.765 50.1919C135.309 50.1919 136.661 52.0127 136.661 53.5961C136.661 55.3377 135.23 57.0002 132.765 57.0002ZM132.765 51.6169C131.493 51.6169 130.619 52.4086 130.619 53.5961C130.619 54.7836 131.493 55.5752 132.765 55.5752C134.037 55.5752 134.912 54.7836 134.912 53.5961C134.912 52.4086 134.037 51.6169 132.765 51.6169Z" fill="#8B8B8B"/>
<path d="M148.665 56.921H147.234L143.418 52.646V56.921H141.749V50.271H143.339L146.996 54.3085V50.271H148.665V56.921Z" fill="#8B8B8B"/>
<path d="M158.602 52.0127C157.648 51.6169 157.012 51.4586 156.456 51.4586C155.82 51.4586 155.422 51.6961 155.422 52.0127C155.422 53.0419 158.92 52.7252 158.92 55.0211C158.92 56.2877 157.807 57.0002 156.297 57.0002C155.104 57.0002 154.548 56.6836 153.832 56.3669V54.9419C154.786 55.5752 155.422 55.8127 156.138 55.8127C156.774 55.8127 157.171 55.5752 157.171 55.1794C157.171 54.0711 153.673 54.4669 153.673 52.0919C153.673 50.9836 154.707 50.1919 156.297 50.1919C157.092 50.1919 157.728 50.3502 158.602 50.6669V52.0127Z" fill="#8B8B8B"/>
<path d="M129.108 26.9956H126.246L137.058 43.6998H139.841L129.108 26.9956Z" fill="#8B8B8B"/>
<path d="M126.246 26.9956L137.058 43.6998H102.714L113.446 26.9956H126.246Z" fill="#8B8B8B"/>
</g>
<defs>
<clipPath id="clip0_149_1326">
<rect width="159" height="57" fill="white"/>
</clipPath>
</defs>
</svg>
