<svg width="105" height="31" viewBox="0 0 105 31" fill="none" xmlns="http://www.w3.org/2000/svg">
<g clip-path="url(#clip0_149_1184)">
<path d="M39.1489 17.456L44.645 0.519981H38.2126L34.9643 10.5528L34.9265 10.1763L34.91 9.8014L34.8492 9.44931L34.808 9.07277L34.729 8.71906L34.6484 8.36208L34.553 8.00836L34.4493 7.65301L34.3292 7.29604L34.2123 6.96351L34.0527 6.60979L33.9128 6.27563L33.7318 5.95615L33.5574 5.62362L33.3517 5.2862L33.1575 4.96998L32.7379 4.39783L32.2805 3.86807L31.8033 3.3758L31.2668 2.89983L30.7304 2.46461L30.1544 2.07177L29.5324 1.71806L28.8973 1.38716L28.2407 1.08886L27.5627 0.831318L26.8683 0.609633L26.1541 0.417289L25.3972 0.278736L24.6386 0.141813L23.8636 0.0619413L23.0869 0.0260806L22.2707 0L21.4545 0.0260806L20.635 0.0782417L19.8007 0.177674L18.9664 0.298296L18.1305 0.45804L17.2748 0.653644L16.4405 0.888369L15.5849 1.16384L14.7292 1.45725L13.89 1.81586L13.0392 2.1924L12.1984 2.6048L11.3657 3.06121L10.5462 3.53392L9.7317 4.06205L8.93526 4.61463L8.17831 5.18514L7.44769 5.77684L6.74505 6.393L6.06874 7.02056L5.43191 7.6742L4.81813 8.34089L4.26029 9.03365L3.71891 9.72316L3.20386 10.4143L2.74804 11.1413L2.31033 11.8552L1.91047 12.5822L1.55339 13.3288L1.21276 14.0656L0.93631 14.8105L0.677961 15.5391L0.455813 16.2906L0.297842 17.0371L0.162908 17.769L0.0625304 18.5172L0.0197464 19.2474L0 19.9565L0.0197464 20.6705L0.100378 21.3763L0.218856 22.0658L0.357081 22.7585L0.5529 23.4252L0.817831 24.0561L1.09593 24.7081L1.42997 25.3242L1.81009 25.9159L2.20995 26.4652L2.64767 26.9787L3.10348 27.4693L3.60208 27.9225L4.12207 28.3365L4.65687 28.7359L5.23445 29.0863L5.83013 29.4221L6.45215 29.7172L7.08568 29.9714L7.76035 30.2111L8.43831 30.4083L9.13272 30.5599L9.85018 30.7033L10.5676 30.8207L11.3262 30.8843L12.0799 30.9234H12.8352L13.6119 30.9006L14.4132 30.8419L15.2048 30.7636L16.0045 30.6235L16.7943 30.4882L17.6155 30.2926L18.43 30.0725L19.2264 29.815L20.0443 29.5395L20.8621 29.2037L21.6536 28.8712L22.45 28.4751L23.2465 28.0627L24.0429 27.6079V26.3463L23.3683 26.7032L22.7067 27.0162L22.0321 27.3129L21.3525 27.5867L20.6564 27.8231L19.985 28.0399L19.3054 28.2404L18.6308 28.3985L17.9495 28.5354L17.2748 28.6348L16.6199 28.7359L15.942 28.7734L15.2854 28.8109H14.6486L13.9903 28.7929L13.3733 28.7359L12.7397 28.6511L12.1391 28.5566L11.5451 28.4343L10.9642 28.2811L10.3899 28.0822L9.83372 27.8883L9.29728 27.6454L8.77893 27.3911L8.27869 27.0993L7.80313 26.801L7.32428 26.4652L6.88657 26.0887L6.4686 25.6975L6.08848 25.2818L5.71165 24.8499L5.37267 24.3755L5.03534 23.8588L4.75395 23.3128L4.4989 22.7585L4.27839 22.1831L4.09903 21.5963L3.96245 20.9997L3.85878 20.3901L3.80119 19.7788L3.76169 19.148V18.5172L3.80119 17.8896L3.87688 17.2327L4.00194 16.6068L4.13688 15.9515L4.31789 15.3011L4.51864 14.6508L4.77699 14.0232L5.03534 13.3728L5.35457 12.7371L5.69355 12.1095L6.04899 11.4787L6.4686 10.8626L6.88657 10.2562L7.34567 9.66448L7.84262 9.07277L8.36097 8.49737L8.91716 7.92686L9.49474 7.37265L10.0871 6.84452L10.7256 6.33432L11.3822 5.84042L12.0618 5.36607L12.7562 4.91129L13.4736 4.49727L14.1927 4.1028L14.9299 3.74745L15.6425 3.43448L16.3747 3.13619L17.1169 2.88516L17.8524 2.64229L18.588 2.45157L19.3285 2.26738L20.0443 2.15165L20.7782 2.03591L21.4973 1.95604L22.2131 1.91529H22.9091L23.6019 1.93322L24.2832 1.97397L24.9611 2.05384L25.6177 2.17121L26.2512 2.30813L26.8897 2.48906L27.4854 2.68304L28.0844 2.92265L28.657 3.17531L29.2165 3.47849L29.7348 3.78657L30.2318 4.14355L30.7304 4.53965L31.1664 4.95042L31.6058 5.38074L32.0057 5.85834L32.3595 6.37344L32.6573 6.82659L32.9173 7.27974L33.1394 7.73288L33.3336 8.22353L33.4949 8.69787L33.6331 9.19177L33.7318 9.70686L33.8306 10.2171L33.8931 10.7501L33.9128 11.2847L33.9359 11.8357L33.9128 12.385L33.8734 12.9588L33.8125 13.5293L33.7318 14.0982L33.6331 14.6882L33.4949 15.3256L33.3139 15.9515L33.1164 16.566L32.9008 17.1545L32.6573 17.7315L32.3792 18.2988L32.083 18.8514L31.7605 19.4072L31.4067 19.9353L31.0266 20.4716L30.6333 20.9802L30.1923 21.4936L29.7118 21.9843L29.2165 22.4814L28.6998 22.9574L28.1403 23.4252L28.4003 23.4888L28.657 23.5263L28.9186 23.5638L29.1967 23.6045L29.4962 23.6453L29.7924 23.686H30.0936H30.3898H30.8324L31.2454 23.6665L31.6848 23.6241L32.1011 23.5442L32.4006 23.4888L32.7215 23.4252L33.0193 23.3502L33.3139 23.2492L33.5953 23.153L33.8931 23.0308L34.1696 22.9167L34.4493 22.7781L34.729 22.6396L34.9874 22.4994L35.2441 22.3413L35.5074 22.1685L35.7641 22.0104L36.0027 21.8262L36.2413 21.6322L36.4799 21.4366L36.6987 21.2377L36.9192 21.0242L37.1365 20.8058L37.3389 20.5873L37.5347 20.351L37.7387 20.1163L37.9131 19.8766L38.0711 19.624L38.2521 19.3664L38.392 19.1056L38.5516 18.8514L38.6931 18.5791L38.8116 18.2988L38.9301 18.0282L39.0486 17.7315L39.1489 17.456Z" fill="#E30801"/>
<path d="M66.6524 23.6862H66.7116H66.7314H66.7956H67.2711L67.745 23.6454L68.2041 23.5868L68.6632 23.4889L69.1207 23.3879L69.5568 23.2722L69.9978 23.1092L70.4322 22.9576L70.8518 22.7587L71.2517 22.5615L71.6483 22.3251L72.0448 22.0887L72.4052 21.8263L72.7639 21.559L73.1227 21.2591L73.4419 20.9428L72.703 23.2493H79.068L84.5838 6.4502H78.1152L75.1532 15.58L75.1138 15.6974L74.9936 16.0951L74.8702 16.3853L74.7353 16.6673L74.574 16.9232L74.3914 17.1758L74.1972 17.4171L73.9767 17.6322L73.7578 17.849L73.5192 18.0283L73.2642 18.2076L72.9795 18.3625L72.703 18.4782L72.4052 18.6021L72.1057 18.695L71.8062 18.7749L71.4886 18.8156L71.1513 18.8515L71.0098 18.8303L70.8732 18.7928L70.7317 18.7537L70.5951 18.695L70.475 18.6412L70.3549 18.5581L70.2561 18.4782L70.1525 18.3837L70.0587 18.2598L69.978 18.162L69.9172 18.0283L69.8612 17.9061L69.8003 17.7692L69.7806 17.611L69.7575 17.4709L69.7378 17.3176L69.7806 17.0601L69.8365 16.8009L73.1802 6.4502H66.7495L62.9121 18.2451L62.8479 18.4375L62.8134 18.6412L62.7722 18.8156L62.7492 19.0096L62.69 19.2476L62.6538 19.484L62.6159 19.7007V19.9355L62.634 20.312L62.69 20.6706L62.7722 21.0243L62.8907 21.3601L63.0322 21.6698L63.2099 21.9844L63.4272 22.2648L63.6444 22.5223L63.906 22.7587L64.1857 22.9739L64.4819 23.1711L64.8045 23.3308L65.1385 23.4515L65.4808 23.5444L65.8329 23.6242L66.213 23.6454L66.371 23.6862H66.5751H66.6129H66.6524Z" fill="#140B0B"/>
<path d="M58.2931 6.45032H58.2586H58.2108L57.7172 6.46988L57.2367 6.509L56.7792 6.56931L56.3053 6.64918L55.8462 6.74861L55.4052 6.88391L54.9691 7.02083L54.5331 7.19687L54.1151 7.39411L53.7136 7.5946L53.317 7.83096L52.9385 8.06894L52.5601 8.34279L52.2227 8.62152L51.8854 8.93612L51.5645 9.25072L54.3356 0.474609H47.9049L40.4621 23.6863H46.8879L49.7939 14.5711L49.8351 14.5157V14.475L49.9749 14.0381L50.0967 13.7692L50.253 13.4904L50.411 13.2329L50.5904 12.9786L50.7714 12.7374L50.9853 12.5238L51.2272 12.325L51.4658 12.131L51.706 11.9517L51.9841 11.7952L52.2606 11.6778L52.5436 11.5572L52.8398 11.4578L53.1574 11.3795L53.4783 11.3241L53.7992 11.3062L53.9571 11.3241L54.0954 11.3584L54.2336 11.3991L54.3718 11.4578L54.4936 11.5344L54.6121 11.6175L54.7322 11.6925L54.8276 11.7952L54.928 11.9109L55.0103 12.012L55.0876 12.1489L55.1501 12.2679L55.188 12.4032L55.2275 12.545L55.2522 12.6836V12.8189L55.2275 13.096L55.1683 13.3551L51.79 23.6863H58.2586L62.0729 11.9109L62.1338 11.7365L62.1963 11.5572L62.2325 11.3584L62.2539 11.1627L62.3115 10.9427L62.3527 10.708L62.3691 10.4537L62.3938 10.2173L62.3691 9.84405L62.3115 9.46751L62.2325 9.13498L62.1157 8.79757L61.9561 8.48297L61.7767 8.18956L61.5546 7.88964L61.3176 7.63698L61.079 7.39411L60.8009 7.1822L60.5047 7.0029L60.1855 6.82686L59.8465 6.70786L59.5075 6.61006L59.1488 6.53019L58.772 6.48781H58.5943L58.4346 6.45032H58.3573H58.2931Z" fill="#140B0B"/>
<path d="M64.8423 29.3538V28.6284H66.6722V30.9528H65.9942V30.6969L65.7375 30.8143L65.4594 30.9153L65.3179 30.9528L65.1534 30.9757L65.0168 30.9903H64.8753L64.5363 30.9757L64.2401 30.9316L64.1002 30.8941L63.962 30.8355L63.8435 30.7784L63.725 30.7165L63.6016 30.6415L63.4831 30.5535L63.3811 30.4818L63.284 30.3823L63.2067 30.2584L63.1244 30.1655L63.0487 30.0433L62.9878 29.9112L62.8661 29.6521L62.7854 29.3538L62.7443 29.0799L62.7278 28.767L62.7443 28.4409L62.8085 28.1312L62.8858 27.846L63.0092 27.5721L63.0849 27.4548L63.1606 27.3374L63.2445 27.2233L63.3449 27.1222L63.4436 27.0196L63.5654 26.9218L63.6855 26.8435L63.8221 26.7848L64.0179 26.6887L64.2598 26.6072L64.5363 26.5664H65.0168L65.1945 26.5925L65.359 26.6072L65.5236 26.6463L65.6882 26.6887L65.8247 26.7408L65.9465 26.8256L66.065 26.9038L66.1654 26.9804L66.2624 27.0848L66.3464 27.176L66.4254 27.2983L66.4846 27.4157L66.5455 27.5314L66.585 27.6699L66.6228 27.8329L65.9054 27.9715L65.8428 27.8085L65.7655 27.6699L65.6684 27.5575L65.5483 27.4548L65.3837 27.3765L65.2192 27.3195L65.0398 27.2804H64.6811L64.5643 27.2983L64.4227 27.3374L64.3026 27.3765L64.1841 27.4352L64.0838 27.4939L63.985 27.5721L63.9044 27.6553L63.804 27.7743L63.7448 27.8867L63.6888 28.009L63.6428 28.1443L63.6049 28.3073L63.5852 28.4442L63.5687 28.6072V28.9332L63.5852 29.0962L63.6049 29.2315L63.6428 29.3945L63.6888 29.5331L63.7448 29.6521L63.8254 29.7743L63.9044 29.8917L63.985 29.965L64.0838 30.0433L64.1841 30.1003L64.3026 30.1655L64.4227 30.2046L64.5643 30.2405L64.6811 30.2584H64.816L65.0398 30.2405L65.2192 30.2242L65.3837 30.2046L65.5483 30.1655L65.6684 30.1003L65.7836 30.0433L65.8889 29.965L66.0041 29.8917V29.3538H64.8423ZM57.7764 28.8044V28.6675L57.7962 28.5045L57.8373 28.366L57.8538 28.203L57.9722 27.8884L58.1154 27.595L58.1927 27.4564L58.2767 27.3211L58.3737 27.2021L58.4906 27.0864L58.614 26.9821L58.7325 26.8859L58.8707 26.806L58.9875 26.7294L59.2113 26.6691L59.4252 26.6088L59.6441 26.568H60.1378L60.3533 26.6088L60.5738 26.6691L60.7746 26.7425L60.9507 26.8272L61.13 26.9429L61.2946 27.057L61.4493 27.2201L61.571 27.3733L61.6928 27.5281L61.7882 27.7025L61.8903 27.9047L61.9495 28.128L61.9873 28.3399L62.0318 28.5518V29.0278L61.9873 29.2413L61.9495 29.4581L61.8903 29.657L61.7882 29.8526L61.6928 30.0335L61.5891 30.2095L61.4493 30.3725L61.311 30.5078L61.1317 30.6268L60.9753 30.7474L60.7762 30.8452L60.5755 30.9039L60.355 30.9626L60.1394 31.0001H59.6787L59.4598 30.9626L59.2409 30.9039L59.0435 30.8452L58.8427 30.7474L58.6667 30.6513L58.5021 30.5078L58.3606 30.3725L58.2224 30.2095L58.1022 30.0465L58.0002 29.8705L57.9212 29.6765L57.862 29.4776L57.8027 29.2657L57.783 29.0424L57.7764 28.8044ZM58.6518 28.7865L58.6732 29.0636L58.7325 29.3163L58.772 29.4532L58.8296 29.5738L58.8888 29.6944L58.9678 29.7874L59.0501 29.8917L59.1488 29.9879L59.2475 30.0645L59.3677 30.1297L59.4894 30.1835L59.6063 30.2242L59.7708 30.2405L59.9107 30.2584L60.0752 30.2405L60.2118 30.2242L60.3533 30.1835L60.4718 30.1297L60.5903 30.0645L60.6907 29.9879L60.7696 29.8917L60.87 29.7874L60.9293 29.6733L60.9902 29.5559L61.0445 29.4336L61.0872 29.3163L61.1465 29.0392L61.1695 28.767L61.1465 28.4882L61.0872 28.2339L61.0445 28.097L60.9902 27.9764L60.9293 27.8818L60.87 27.7596L60.791 27.6634L60.6907 27.5803L60.5903 27.502L60.4718 27.4434L60.3533 27.3847L60.2118 27.3456L60.0752 27.3276L59.9107 27.3064L59.7461 27.3276L59.6046 27.3456L59.4647 27.3847L59.3463 27.4434L59.2459 27.502L59.1258 27.5803L59.0484 27.6781L58.9661 27.7824L58.8872 27.8818L58.8279 27.9976L58.7703 28.11L58.7308 28.2339L58.6716 28.5061L58.6518 28.7865ZM45.4744 30.9316V26.643H46.2149L48.2043 29.5168V26.643H49.0024V30.9382H48.2241L46.2692 28.1459V30.9382L45.4744 30.9316ZM40.8192 30.9316V26.643H41.6798V28.3366H43.6067V26.643H44.441V30.9382H43.6067V29.0701H41.6814V30.9382L40.8192 30.9316ZM32.3216 30.9316V26.643H35.4481V27.3716H33.1789V28.3187H35.2869V29.0457H33.1789V30.2112H35.5288V30.9382L32.3216 30.9316ZM68.4247 30.9316V29.1272L66.891 26.643H67.8882L68.864 28.3366L69.8365 26.643H70.814L69.2771 29.1468V30.9398L68.4247 30.9316ZM54.7667 30.9316V26.6821H55.6273V30.2112H57.5329V30.9382L54.7667 30.9316ZM49.8301 28.8044V28.6675L49.8466 28.5045L49.8696 28.366L49.9091 28.203L50.0078 27.8884L50.1494 27.595L50.2464 27.4564L50.3271 27.3211L50.4242 27.2021L50.5459 27.0864L50.643 26.9821L50.7829 26.8859L50.903 26.806L51.0429 26.7294L51.242 26.6691L51.4576 26.6088L51.6995 26.568H52.1931L52.4136 26.6088L52.6292 26.6691L52.8299 26.7425L53.0109 26.8272L53.1887 26.9429L53.3532 27.057L53.5178 27.2201L53.6363 27.3733L53.7514 27.5281L53.8535 27.7025L53.9324 27.9047L54.0131 28.128L54.0526 28.3399L54.0921 28.5518V29.0278L54.0526 29.2413L54.0131 29.4581L53.9324 29.657L53.8535 29.8526L53.7514 30.0335L53.6363 30.2095L53.5178 30.3725L53.3532 30.5078L53.1887 30.6268L53.0109 30.7474L52.8299 30.8452L52.6292 30.9039L52.4136 30.9626L52.1931 31.0001H51.7373L51.4954 30.9626L51.3012 30.9039L51.0972 30.8452L50.8997 30.7474L50.7187 30.6513L50.5624 30.5078L50.4209 30.3725L50.2777 30.2095L50.1642 30.0465L50.0638 29.8705L49.9881 29.6765L49.9058 29.4776L49.8663 29.2657L49.8268 29.0424L49.8301 28.8044ZM50.7039 28.7865L50.722 29.0636L50.7829 29.3163L50.824 29.4532L50.8849 29.5738L50.9409 29.6944L51.0264 29.7874L51.1005 29.8917L51.1992 29.9879L51.3045 30.0645L51.3983 30.1297L51.5398 30.1835L51.66 30.2242L51.8245 30.2405L51.966 30.2584L52.1306 30.2405L52.2672 30.2242L52.4103 30.1835L52.5255 30.1297L52.6456 30.0645L52.7477 29.9879L52.8283 29.8917L52.9073 29.7874L52.9879 29.6733L53.0471 29.5559L53.1047 29.4336L53.1426 29.3163L53.2051 29.0392L53.2216 28.767L53.2051 28.4882L53.1426 28.2339L53.1047 28.097L53.0471 27.9764L52.9863 27.8867L52.9303 27.7645L52.8266 27.6683L52.746 27.5852L52.644 27.5069L52.5239 27.4483L52.4087 27.3896L52.2655 27.3505L52.1289 27.3325L51.9644 27.3113L51.7998 27.3325L51.6632 27.3505L51.5217 27.3896L51.4016 27.4483L51.2848 27.5069L51.1844 27.5852L51.1038 27.683L51.0067 27.7873L50.9442 27.8867L50.8882 28.0025L50.8273 28.1149L50.7862 28.2388L50.7253 28.511L50.7039 28.7865ZM39.1045 29.3538L39.9832 29.6113L39.9421 29.7874L39.8697 29.9504L39.8055 30.084L39.7232 30.2226L39.6212 30.3611L39.5258 30.4557L39.4254 30.5518L39.3036 30.6578L39.1868 30.736L39.0486 30.8126L38.9104 30.8746L38.7688 30.9137L38.6043 30.9512L38.448 30.974L38.2834 30.9887H37.8621L37.6828 30.9838L37.4853 30.9235L37.2846 30.8632L37.1052 30.7866L36.9275 30.6855L36.7629 30.5616L36.6247 30.4312L36.4865 30.2682L36.368 30.0954L36.2676 29.9015L36.1656 29.7042L36.1064 29.4842L36.0685 29.2462L36.029 29.0326V28.7963L36.0455 28.573L36.0685 28.3399L36.1064 28.1198L36.187 27.9047L36.2676 27.7107L36.368 27.5118L36.4865 27.3374L36.6247 27.1744L36.7893 27.0326L36.9538 26.9169L37.1299 26.8174L37.3043 26.718L37.5116 26.6593L37.7289 26.6202L37.9477 26.5794H38.3821L38.5648 26.6055L38.7623 26.6414L38.9268 26.7017L39.1045 26.7539L39.2427 26.8386L39.4073 26.9348L39.5241 27.0326L39.6887 27.1956L39.8072 27.3765L39.9075 27.5917L40.0063 27.8281L39.0897 28.0448L39.0519 27.8933L38.9729 27.7514L38.8741 27.6129L38.7524 27.5135L38.6142 27.4352L38.4759 27.3765L38.3114 27.339L38.1271 27.3179L38.0102 27.339H37.8901L37.77 27.3765L37.6729 27.4157L37.5709 27.4548L37.4722 27.5135L37.3932 27.577L37.3076 27.6748L37.2138 27.7938L37.1332 27.9063L37.0723 28.0448L37.0147 28.2079L36.9752 28.3431L36.9357 28.5061L36.9176 28.6692V28.9821L36.9357 29.1451L36.9752 29.2869L37.0147 29.4385L37.0723 29.5803L37.1332 29.6977L37.2138 29.833L37.3076 29.9357L37.3932 30.0123L37.4722 30.0889L37.5709 30.1541L37.6729 30.19L37.77 30.2291L37.872 30.265L37.9905 30.2829H38.1073L38.2867 30.265L38.4512 30.2291L38.6158 30.1688L38.754 30.0677L38.8758 29.9357L38.9745 29.7727L39.0535 29.595L39.1045 29.3538ZM29.3778 30.9316V27.3716H28.1387V26.643H31.4824V27.3716H30.2318V30.9382L29.3778 30.9316Z" fill="#140B0B"/>
<path d="M21.2142 15.4397L20.8604 15.5603L20.4803 15.6565L20.12 15.7738L19.7415 15.8749L19.3597 15.9515L18.9895 16.0575L18.611 16.152L18.2325 16.2335L17.9939 16.2906L17.7915 16.3476L16.9688 16.5823L16.2908 16.8024L16.0143 16.9246L15.756 17.0224L15.5355 17.1398L15.3578 17.2343L15.1932 17.355L15.0533 17.4723L14.9184 17.6125L14.7769 17.7511L14.6765 17.9141L14.5761 18.0543L14.4758 18.2173L14.4198 18.3803L14.3589 18.5759L14.3178 18.7535V18.9165L14.3375 19.0795L14.3787 19.2425L14.4396 19.3844L14.5169 19.518L14.5959 19.6419L14.7374 19.7756L14.8559 19.8946L14.9958 19.9728L15.1603 20.0347L15.3364 20.0739L15.5371 20.113L15.7774 20.1342H16.016L16.4537 20.0934L16.9145 20.0136L17.13 19.9728L17.3472 19.9158L17.5694 19.8571L17.7866 19.7756L17.989 19.6973L18.1881 19.6012L18.4464 19.4593L18.7048 19.3257L18.945 19.1888L19.1425 19.0258L19.34 18.8464L19.5391 18.6834L19.7036 18.5074L19.8682 18.3314L20.0327 18.1521L20.1973 17.9353L20.3339 17.7168L20.477 17.4788L20.5955 17.2409L20.7156 16.9898L20.8325 16.7307L20.9345 16.4552L21.2142 15.4397ZM17.7915 13.4298L18.4102 13.3108L18.95 13.1967L19.386 13.0729L19.7234 12.9963L20.3174 12.8593L20.918 12.7061L21.5351 12.5235L22.1505 12.31L22.2262 12.1307L22.3135 11.9514L22.371 11.7754L22.4105 11.5732L22.4303 11.3793L22.4484 11.1837L22.4303 10.9848L22.4105 10.7827L22.2114 10.6865L21.9876 10.592L21.7754 10.4941L21.5532 10.4143L21.3327 10.3344L21.1336 10.2937L20.9345 10.2382L20.7337 10.217L20.3964 10.1959H20.0426L19.702 10.2382L19.3844 10.2937L19.0553 10.3768L18.7393 10.4681L18.4432 10.592L18.1848 10.7272L17.9857 10.8625L17.7833 10.9848L17.5266 11.2L17.2452 11.4575L16.9852 11.7835L16.7302 12.1389L10.6417 11.4868L10.8819 11.1103L11.1205 10.7582L11.3591 10.4322L11.5944 10.1404L11.8478 9.85844L12.0651 9.60578L12.302 9.36616L12.5604 9.15426L12.8006 8.91628L13.0787 8.69785L13.3288 8.48921L13.6069 8.29197L13.9081 8.09637L14.2059 7.8975L14.5037 7.72146L14.8213 7.55846L15.1422 7.37915L15.4713 7.24549L15.8103 7.1102L16.1493 6.9912L16.5113 6.86895L16.8799 6.75485L17.2633 6.67498L17.6434 6.59837L18.0614 6.51523L18.4777 6.47448L18.8973 6.41743L19.3169 6.37994L19.7514 6.35386L20.1693 6.34082H21.6207L22.1999 6.35386L22.7577 6.37994L23.2909 6.41743L23.8109 6.45655L24.3046 6.51523L24.7587 6.57555L25.1586 6.63749L25.5765 6.7141L25.9731 6.81353L26.3549 6.94719L26.712 7.1102L27.0493 7.30254L27.3669 7.54053L27.6697 7.78014L27.9461 8.07355L28.2061 8.36858L28.42 8.68481L28.6224 9.04016L28.7788 9.39877L28.9203 9.76715L28.9976 10.1649L29.0602 10.5789L29.0766 10.9913V11.2065L29.0602 11.5406L29.0371 11.7411L28.9976 11.9367L28.9598 12.116L28.9005 12.3165L28.6817 13.0256L28.4036 13.852L28.1041 14.7974L27.7454 15.8814L27.3521 17.1039L26.8897 18.5058L26.396 20.0625L25.8431 21.818L25.7839 22.0169L25.7641 22.2174L25.7444 22.4113L25.7641 22.6053L25.7839 22.783L25.8217 22.9639L25.8596 23.1155L25.9188 23.2557H19.7234V23.2198L19.6444 23.0796L19.5835 22.9411L19.5276 22.8042L19.4848 22.6656L19.4255 22.3478V21.831L19.4469 21.6583L19.4848 21.479L19.544 21.2882L19.1063 21.6387L18.6653 21.9337L18.2325 22.1815L17.7915 22.4195L17.4953 22.5825L17.2123 22.721L16.949 22.8335L16.6709 22.9297L16.2118 23.1041L15.7181 23.2671L15.1982 23.4024L14.6815 23.5002L14.1417 23.6013L13.5872 23.6632L13.0507 23.6828H12.0733L11.6751 23.6632L11.2982 23.6208L10.9576 23.5833L10.6631 23.523L10.3636 23.4611L10.1036 23.3845L9.86498 23.285L9.64447 23.1921L9.42562 23.0699L9.24954 22.9541L9.06854 22.8107L8.88917 22.6754L8.72462 22.5124L8.58475 22.3494L8.44652 22.1962L8.32311 22.012L8.20627 21.849L8.1059 21.6762L8.00881 21.492L7.92653 21.2997L7.86729 21.0992L7.80806 20.9019L7.74717 20.7031L7.71097 20.4879L7.68958 20.2727L7.66983 20.0543V19.8391L7.68958 19.6028L7.72742 19.3632L7.77021 19.1252L7.82945 18.8758L7.91008 18.6199L7.98742 18.3607L8.0878 18.139L8.18488 17.9059L8.30665 17.6875L8.40703 17.4919L8.54196 17.2947L8.66538 17.0958L8.95993 16.7437L9.28904 16.4079L9.62637 16.0917L9.98345 15.7771L10.4031 15.4804L10.8803 15.2261L11.397 14.967L11.9515 14.7306L12.5752 14.5122L13.2482 14.315L13.9657 14.1373L14.7407 13.9743L15.1768 13.896L15.6161 13.8194L16.0127 13.7428L16.4093 13.6809L16.7861 13.6026L17.1481 13.5407L17.4657 13.4836L17.7915 13.4298Z" fill="#140B0B"/>
<path d="M97.1031 15.44L96.7444 15.5606L96.3675 15.6568L95.9841 15.7742L95.6287 15.8752L95.2486 15.9518L94.875 16.0578L94.4966 16.1523L94.1164 16.2338L93.8795 16.2909L93.6804 16.3479L92.8461 16.5827L92.1879 16.8011L91.8884 16.9233L91.6465 17.0211L91.4309 17.1385L91.2516 17.2331L91.0952 17.3537L90.9307 17.471L90.7957 17.6112L90.6707 17.7498L90.5506 17.9128L90.4518 18.053L90.3745 18.216L90.3136 18.379L90.2527 18.5746L90.2182 18.7522V18.9152L90.2346 19.0783L90.2741 19.2413L90.3317 19.3831L90.4123 19.5167L90.493 19.6406L90.6114 19.7743L90.753 19.8933L90.8912 19.9943L91.0557 20.0514L91.2384 20.1117L91.4359 20.1541H91.9098L92.3491 20.1117L92.7654 20.0335L93.1867 19.9356L93.5668 19.8199L93.965 19.6569L94.3238 19.4776L94.6628 19.2624L94.9919 19.044L95.2881 18.7897L95.5875 18.5143L95.8459 18.2225L96.0845 17.8965L96.3017 17.5558L96.5057 17.2053L96.6703 16.8321L96.8102 16.4555L97.1031 15.44ZM93.6804 13.4302L94.2958 13.3112L94.8158 13.1971L95.2486 13.0732L95.6122 12.9966L96.2063 12.8597L96.8052 12.7064L97.4026 12.5239L98.0394 12.3103L98.1184 12.131L98.1957 11.9517L98.255 11.7757L98.2961 11.5736L98.3191 11.3796V10.9672L98.2961 10.77L98.0986 10.6673L97.8781 10.5727L97.6626 10.4945L97.4404 10.4146L97.0027 10.294L96.6226 10.2174L96.2655 10.1962H95.9364L95.5941 10.2386L95.2535 10.294L94.9409 10.3771L94.6381 10.4684L94.3419 10.5923L94.0654 10.7276L93.863 10.8629L93.6853 10.9851L93.4039 11.2003L93.1373 11.4578L92.8806 11.7838L92.6042 12.1392L86.5289 11.4872L86.7708 11.1106L87.0077 10.7586L87.2299 10.4325L87.4652 10.1408L87.7071 9.85877L87.949 9.58656L88.1892 9.3502L88.4295 9.13341L88.6862 8.89379L88.9643 8.67863L89.2226 8.46346L89.4991 8.26297L89.8018 8.06737L90.098 7.88969L90.3959 7.71365L90.725 7.53434L91.0426 7.37134L91.3569 7.23768L91.7172 7.10238L92.0562 6.98339L92.4166 6.86114L92.7918 6.76497L93.1505 6.66717L93.5504 6.59055L93.9683 6.50742L94.383 6.44874L94.7993 6.40962L95.2189 6.37213L95.6599 6.34605L96.0763 6.33301H97.5293L98.1069 6.34605L98.6614 6.37213L99.1995 6.40962L99.7228 6.44874L100.197 6.50742L100.652 6.56773L101.075 6.62967L101.49 6.70629L101.869 6.80572L102.247 6.93938L102.622 7.10238L102.961 7.29473L103.28 7.53271L103.577 7.77233L103.858 8.06574L104.118 8.36077L104.335 8.677L104.534 9.03235L104.699 9.39095L104.819 9.75934L104.918 10.1571L104.979 10.5711L105 10.9835L104.979 11.1987L104.959 11.5328L104.878 11.9289L104.781 12.3087L104.541 13.0178L104.284 13.8442L103.983 14.7896L103.654 15.8736L103.256 17.0961L102.815 18.498L102.321 20.0546L101.743 21.8102L101.701 21.9732L101.683 22.1574L101.661 22.3546V22.5519L101.701 22.7491L101.722 22.9251L101.785 23.0995L101.841 23.2397H95.6056V23.2039L95.525 23.0637L95.4674 22.9251L95.4032 22.7882L95.3654 22.6497L95.3062 22.3318L95.2831 22.0172L95.3062 21.8151L95.321 21.6423L95.3654 21.463L95.4246 21.2723L94.9869 21.6227L94.5492 21.9178L94.0983 22.1818L93.6804 22.4198L93.3825 22.5828L93.1028 22.7214L92.8461 22.8436L92.5647 22.9398L92.0875 23.1142L91.5938 23.2772L91.1002 23.4125L90.5588 23.5103L90.0223 23.6114L89.4826 23.6733L88.9264 23.6929H87.9523L87.5721 23.6733L87.1953 23.6309L86.8547 23.5934L86.5387 23.5331L86.2606 23.4712L86.0023 23.3946L85.7653 23.2952L85.5218 23.2022L85.3293 23.08L85.1269 22.9643L84.9459 22.8208L84.7912 22.6855L84.6266 22.5225L84.4917 22.3595L84.3271 22.2063L84.2087 22.0221L84.1099 21.8591L84.0128 21.6863L83.9125 21.5021L83.8335 21.3098L83.7512 21.1093L83.692 20.912L83.6541 20.7132L83.613 20.498L83.5932 20.2828L83.5718 20.0644V19.8493L83.5932 19.6129L83.613 19.3733L83.6689 19.1353L83.7101 18.8859L83.7923 18.63L83.8894 18.3708L83.9931 18.1491L84.0935 17.916L84.1873 17.6976L84.309 17.502L84.4275 17.3048L84.5641 17.1059L84.8669 16.7538L85.1664 16.418L85.4955 16.1018L85.8756 15.7872L86.2968 15.4905L86.7461 15.2363L87.2661 14.9771L87.8437 14.7407L88.4624 14.5223L89.1206 14.3251L89.8545 14.1474L90.6328 13.9844L91.0689 13.9061L91.4836 13.8295L91.9015 13.7529L92.3014 13.691L92.6601 13.6127L93.0221 13.5508L93.3513 13.4938L93.6804 13.4302Z" fill="#140B0B"/>
</g>
<defs>
<clipPath id="clip0_149_1184">
<rect width="105" height="31" fill="white"/>
</clipPath>
</defs>
</svg>
