<svg width="137" height="41" viewBox="0 0 137 41" fill="none" xmlns="http://www.w3.org/2000/svg">
<g clip-path="url(#clip0_149_1293)">
<path d="M51.0801 23.087L58.2511 0.687717H49.8584L45.6201 13.957L45.5708 13.459L45.5493 12.9631L45.4699 12.4975L45.4162 11.9995L45.3131 11.5317L45.2079 11.0595L45.0834 10.5917L44.9481 10.1217L44.7914 9.6496L44.639 9.2098L44.4307 8.74198L44.2482 8.30003L44.012 7.87749L43.7844 7.43769L43.5161 6.99143L43.2627 6.57319L42.7152 5.81649L42.1183 5.11584L41.4957 4.46477L40.7958 3.83526L40.0958 3.25965L39.3444 2.74009L38.5328 2.27227L37.704 1.83463L36.8474 1.44011L35.9628 1.09948L35.0567 0.806289L34.1249 0.551898L33.1373 0.368651L32.1475 0.187559L31.1363 0.0819224L30.1229 0.0344936L29.0579 0L27.993 0.0344936L26.9238 0.103481L25.8352 0.234988L24.7467 0.394521L23.656 0.605795L22.5395 0.864497L21.451 1.17494L20.3345 1.53928L19.2181 1.92733L18.1231 2.40162L17.0131 2.89962L15.916 3.44505L14.8296 4.04869L13.7603 4.67389L12.6975 5.37238L11.6584 6.10322L10.6708 6.85777L9.71747 7.64034L8.80069 8.45525L7.91826 9.28526L7.08735 10.1498L6.28651 11.0315L5.55867 11.9477L4.85229 12.8597L4.18027 13.7737L3.58554 14.7353L3.01443 15.6795L2.4927 16.641L2.0268 17.6284L1.58236 18.6029L1.22166 19.5881L0.884577 20.5517L0.594728 21.5456L0.388613 22.533L0.212556 23.5009L0.0815872 24.4905L0.0257644 25.4563L0 26.3941L0.0257644 27.3384L0.130969 28.2718L0.285555 29.1838L0.465906 30.1L0.721403 30.9818L1.06708 31.8161L1.42992 32.6784L1.86577 33.4933L2.36174 34.2759L2.88346 35.0024L3.45458 35.6815L4.0493 36.3304L4.69985 36.9298L5.37832 37.4773L6.0761 38.0055L6.82971 38.469L7.60694 38.9131L8.41851 39.3033L9.24512 39.6397L10.1254 39.9566L11.01 40.2174L11.916 40.4179L12.8521 40.6076L13.7882 40.7629L14.778 40.8469L15.7614 40.8987H16.7469L17.7603 40.8685L18.8059 40.7909L19.8386 40.6874L20.882 40.502L21.9126 40.3231L22.984 40.0644L24.0468 39.7733L25.0859 39.4327L26.153 39.0684L27.2201 38.6243L28.2528 38.1845L29.292 37.6606L30.3311 37.1152L31.3703 36.5137V34.845L30.49 35.3172L29.6269 35.7311L28.7466 36.1235L27.8599 36.4856L26.9517 36.7982L26.0757 37.085L25.189 37.3501L24.3087 37.5593L23.4198 37.7404L22.5395 37.8719L21.685 38.0055L20.8004 38.0551L19.9438 38.1047H19.1129L18.2541 38.081L17.4489 38.0055L16.6223 37.8934L15.8387 37.7684L15.0636 37.6067L14.3057 37.404L13.5564 37.141L12.8307 36.8845L12.1307 36.5633L11.4544 36.2269L10.8017 35.841L10.1812 35.4465L9.55644 35.0024L8.98533 34.5044L8.43999 33.987L7.94402 33.4373L7.45235 32.866L7.01006 32.2386L6.56992 31.5552L6.20278 30.833L5.86999 30.1L5.58228 29.339L5.34826 28.5629L5.17005 27.7738L5.03479 26.9676L4.95965 26.1591L4.90812 25.3248V24.4905L4.95965 23.6605L5.05841 22.7917L5.22158 21.9638L5.39764 21.0972L5.63381 20.237L5.89575 19.3768L6.23284 18.5468L6.56992 17.6866L6.98644 16.8458L7.42873 16.0158L7.89249 15.1815L8.43999 14.3666L8.98533 13.5646L9.58435 12.782L10.2328 11.9995L10.9091 11.2385L11.6348 10.4839L12.3884 9.75092L13.1613 9.05242L13.9944 8.37764L14.851 7.72442L15.7377 7.09707L16.6438 6.49558L17.5799 5.948L18.5182 5.42628L19.48 4.9563L20.4097 4.54238L21.3651 4.14786L22.3334 3.81586L23.2932 3.49464L24.2529 3.2424L25.219 2.99879L26.153 2.84573L27.1106 2.69266L28.0488 2.58702L28.9828 2.53313H29.891L30.7949 2.55684L31.6838 2.61074L32.5683 2.71637L33.425 2.8716L34.2516 3.05269L35.0847 3.29199L35.8619 3.54853L36.6434 3.86544L37.3906 4.1996L38.1206 4.60059L38.7969 5.00805L39.4453 5.48018L40.0958 6.00405L40.6648 6.54732L41.2381 7.11647L41.7598 7.74813L42.2214 8.42938L42.61 9.02871L42.9492 9.62804L43.2391 10.2274L43.4924 10.8763L43.7028 11.5036L43.8832 12.1569L44.012 12.8381L44.1408 13.5129L44.2224 14.2178L44.2482 14.925L44.2782 15.6536L44.2482 16.3802L44.1967 17.139L44.1172 17.8936L44.012 18.646L43.8832 19.4264L43.7028 20.2693L43.4667 21.0972L43.209 21.9099L42.9278 22.6882L42.61 23.4514L42.2472 24.2016L41.8607 24.9324L41.4399 25.6676L40.9783 26.3661L40.4823 27.0753L39.9692 27.748L39.3937 28.4271L38.7668 29.076L38.1206 29.7335L37.4464 30.363L36.7164 30.9818L37.0556 31.0658L37.3906 31.1154L37.7319 31.165L38.0948 31.2189L38.4856 31.2728L38.872 31.3267H39.2649H39.6514H40.2289L40.7679 31.3008L41.3411 31.2448L41.8843 31.1391L42.2751 31.0658L42.6937 30.9818L43.0824 30.8826L43.4667 30.7489L43.8338 30.6217L44.2224 30.46L44.5831 30.3091L44.9481 30.1259L45.3131 29.9426L45.6502 29.7572L45.9851 29.5481L46.3287 29.3196L46.6636 29.1105L46.9749 28.8669L47.2862 28.6103L47.5976 28.3516L47.8831 28.0886L48.1708 27.8062L48.4542 27.5173L48.7183 27.2284L48.9738 26.9158L49.24 26.6054L49.4676 26.2885L49.6737 25.9543L49.9099 25.6137L50.0924 25.2687L50.3007 24.9324L50.4853 24.5724L50.6399 24.2016L50.7945 23.8437L50.9491 23.4514L51.0801 23.087Z" fill="#8B8B8B"/>
<path d="M86.9654 31.3267H87.0427H87.0685H87.1522H87.7727L88.391 31.2728L88.9901 31.1952L89.5891 31.0659L90.186 30.9322L90.7549 30.7792L91.3303 30.5636L91.8971 30.3631L92.4446 30.1001L92.9664 29.8392L93.4838 29.5266L94.0012 29.214L94.4714 28.8669L94.9395 28.5134L95.4075 28.1167L95.8241 27.6984L94.86 30.749H103.165L110.362 8.53076H101.922L98.057 20.6057L98.0054 20.7609L97.8487 21.2869L97.6877 21.6707L97.5116 22.0436L97.3012 22.3821L97.0629 22.7163L96.8095 23.0353L96.5218 23.3199L96.2363 23.6066L95.925 23.8438L95.5922 24.0809L95.2207 24.2857L94.86 24.4388L94.4714 24.6026L94.0807 24.7255L93.6899 24.8312L93.2755 24.8851L92.8354 24.9325L92.6507 24.9045L92.4725 24.8549L92.2879 24.8031L92.1097 24.7255L91.953 24.6544L91.7962 24.5444L91.6674 24.4388L91.5321 24.3138L91.4098 24.1499L91.3046 24.0206L91.2251 23.8438L91.1521 23.6821L91.0727 23.501L91.0469 23.2919L91.0169 23.1065L90.9911 22.9038L91.0469 22.5632L91.1199 22.2204L95.4827 8.53076H87.0921L82.0852 24.1305L82.0015 24.3849L81.9564 24.6544L81.9027 24.8851L81.8726 25.1416L81.7953 25.4564L81.7481 25.769L81.6987 26.0557V26.3661L81.7224 26.8641L81.7953 27.3384L81.9027 27.8062L82.0573 28.2503L82.2419 28.66L82.4738 29.076L82.7572 29.4468L83.0406 29.7875L83.382 30.1001L83.747 30.3846L84.1335 30.6455L84.5543 30.8568L84.9901 31.0163L85.4367 31.1392L85.8962 31.2448L86.3921 31.2728L86.5983 31.3267H86.8645H86.9139H86.9654Z" fill="#8B8B8B"/>
<path d="M76.0587 8.5308H76.0136H75.9513L75.3072 8.55667L74.6803 8.60841L74.0834 8.68817L73.4651 8.79381L72.8661 8.92532L72.2907 9.10425L71.7217 9.28535L71.1527 9.51818L70.6074 9.77904L70.0835 10.0442L69.5661 10.3568L69.0723 10.6716L68.5784 11.0337L68.1383 11.4024L67.6982 11.8185L67.2795 12.2346L70.8951 0.627441H62.5045L52.7935 31.3268H61.1776L64.9693 19.2713L65.023 19.198V19.1441L65.2055 18.5663L65.3643 18.2106L65.5683 17.8419L65.7744 17.5013L66.0084 17.165L66.2446 16.8459L66.5237 16.5635L66.8393 16.3005L67.1507 16.0439L67.4641 15.8068L67.827 15.5998L68.1877 15.4446L68.557 15.2851L68.9434 15.1536L69.3578 15.0501L69.7765 14.9768L70.1952 14.9531L70.4013 14.9768L70.5816 15.0221L70.762 15.076L70.9423 15.1536L71.1012 15.2549L71.2558 15.3648L71.4125 15.464L71.5371 15.5998L71.668 15.7529L71.7754 15.8866L71.8763 16.0677L71.9579 16.225L72.0073 16.404L72.0588 16.5915L72.091 16.7748V16.9537L72.0588 17.3202L71.9815 17.663L67.5736 31.3268H76.0136L80.9904 15.7529L81.0699 15.5222L81.1515 15.2851L81.1987 15.0221L81.2266 14.7634L81.3018 14.4723L81.3554 14.1619L81.3769 13.8256L81.4091 13.513L81.3769 13.0193L81.3018 12.5213L81.1987 12.0815L81.0463 11.6352L80.838 11.2191L80.604 10.8311L80.3141 10.4344L80.0049 10.1003L79.6936 9.77904L79.3308 9.49878L78.9443 9.26163L78.5278 9.0288L78.0855 8.87142L77.6432 8.74207L77.1752 8.63643L76.6835 8.58038H76.4516L76.2433 8.5308H76.1424H76.0587Z" fill="#8B8B8B"/>
<path d="M84.6039 38.8227V37.8634H86.9914V40.9376H86.1068V40.5992L85.7719 40.7544L85.409 40.888L85.2244 40.9376L85.0097 40.9678L84.8315 40.9872H84.6469L84.2046 40.9678L83.8181 40.9096L83.6356 40.86L83.4553 40.7824L83.3007 40.707L83.1461 40.625L82.9851 40.5259L82.8305 40.4094L82.6974 40.3146L82.5707 40.1831L82.4698 40.0192L82.3624 39.8964L82.2636 39.7347L82.1842 39.56L82.0253 39.2173L81.9201 38.8227L81.8664 38.4606L81.845 38.0466L81.8664 37.6155L81.9502 37.2059L82.0511 36.8286L82.2121 36.4664L82.3109 36.3112L82.4096 36.156L82.5191 36.005L82.6501 35.8714L82.7789 35.7356L82.9378 35.6062L83.0945 35.5027L83.2728 35.4251L83.5283 35.2979L83.8439 35.1901L84.2046 35.1362H84.8315L85.0634 35.1707L85.2781 35.1901L85.4928 35.2419L85.7075 35.2979L85.8857 35.3669L86.0446 35.479L86.1992 35.5825L86.3301 35.6838L86.4568 35.8218L86.5663 35.9425L86.6694 36.1042L86.7467 36.2594L86.8261 36.4125L86.8776 36.5957L86.927 36.8113L85.9909 36.9946L85.9093 36.779L85.8084 36.5957L85.6817 36.447L85.525 36.3112L85.3103 36.2077L85.0956 36.1322L84.8616 36.0805H84.3935L84.2411 36.1042L84.0564 36.156L83.8997 36.2077L83.7451 36.2853L83.6141 36.3629L83.4853 36.4664L83.3801 36.5763L83.2491 36.7337L83.1718 36.8825L83.0988 37.0442L83.0387 37.2231L82.9893 37.4387L82.9636 37.6198L82.9421 37.8354V38.2665L82.9636 38.4821L82.9893 38.6611L83.0387 38.8766L83.0988 39.0599L83.1718 39.2173L83.277 39.379L83.3801 39.5342L83.4853 39.6312L83.6141 39.7347L83.7451 39.8101L83.8997 39.8964L84.0564 39.9481L84.2411 39.9955L84.3935 40.0192H84.5696L84.8616 39.9955L85.0956 39.974L85.3103 39.9481L85.525 39.8964L85.6817 39.8101L85.832 39.7347L85.9694 39.6312L86.1197 39.5342V38.8227H84.6039ZM75.3846 38.0962V37.9151L75.4103 37.6995L75.464 37.5163L75.4855 37.3007L75.6401 36.8846L75.8268 36.4966L75.9278 36.3133L76.0373 36.1344L76.1639 35.977L76.3164 35.8239L76.4774 35.686L76.632 35.5588L76.8123 35.4531L76.9648 35.3518L77.2568 35.2721L77.5359 35.1923L77.8214 35.1384H78.4655L78.7468 35.1923L79.0345 35.2721L79.2964 35.3691L79.5262 35.4812L79.7602 35.6342L79.9749 35.7851L80.1767 36.0007L80.3356 36.2034L80.4945 36.4082L80.619 36.6389L80.7521 36.9062L80.8294 37.2015L80.8788 37.4818L80.9368 37.7621V38.3916L80.8788 38.674L80.8294 38.9607L80.7521 39.2237L80.619 39.4824L80.4945 39.7217L80.3592 39.9546L80.1767 40.1701L79.9964 40.3491L79.7624 40.5065L79.5584 40.666L79.2986 40.7953L79.0367 40.873L78.749 40.9506L78.4677 41.0001H77.8665L77.581 40.9506L77.2954 40.873L77.0378 40.7953L76.7758 40.666L76.5461 40.5388L76.3314 40.3491L76.1468 40.1701L75.9664 39.9546L75.8097 39.739L75.6766 39.5061L75.5735 39.2496L75.4962 38.9866L75.4189 38.7063L75.3931 38.411L75.3846 38.0962ZM76.5268 38.0725L76.5547 38.439L76.632 38.7732L76.6835 38.9542L76.7587 39.1138L76.8359 39.2733L76.939 39.3962L77.0464 39.5342L77.1752 39.6614L77.304 39.7627L77.4607 39.8489L77.6196 39.9201L77.7721 39.974L77.9868 39.9955L78.1693 40.0192L78.384 39.9955L78.5622 39.974L78.7468 39.9201L78.9014 39.8489L79.056 39.7627L79.187 39.6614L79.29 39.5342L79.421 39.3962L79.4983 39.2453L79.5777 39.0901L79.6486 38.9284L79.7044 38.7732L79.7817 38.4067L79.8117 38.0466L79.7817 37.678L79.7044 37.3417L79.6486 37.1606L79.5777 37.001L79.4983 36.876L79.421 36.7143L79.3179 36.5871L79.187 36.4772L79.056 36.3737L78.9014 36.2961L78.7468 36.2185L78.5622 36.1667L78.384 36.143L78.1693 36.115L77.9546 36.143L77.7699 36.1667L77.5874 36.2185L77.4328 36.2961L77.3019 36.3737L77.1451 36.4772L77.0442 36.6065L76.9369 36.7445L76.8338 36.876L76.7565 37.0291L76.6814 37.1778L76.6298 37.3417L76.5525 37.7017L76.5268 38.0725ZM59.3333 40.9096V35.2376H60.2995L62.8953 39.0383V35.2376H63.9366V40.9182H62.921L60.3704 37.2253V40.9182L59.3333 40.9096ZM53.2594 40.9096V35.2376H54.3823V37.4775H56.8965V35.2376H57.985V40.9182H56.8965V38.4476H54.3844V40.9182L53.2594 40.9096ZM42.1721 40.9096V35.2376H46.2515V36.2012H43.2907V37.4538H46.0411V38.4153H43.2907V39.9567H46.3567V40.9182L42.1721 40.9096ZM89.278 40.9096V38.5231L87.277 35.2376H88.5781L89.8513 37.4775L91.1202 35.2376H92.3955L90.3902 38.5489V40.9204L89.278 40.9096ZM71.4576 40.9096V35.2893H72.5805V39.9567H75.0668V40.9182L71.4576 40.9096ZM65.0165 38.0962V37.9151L65.038 37.6995L65.0681 37.5163L65.1196 37.3007L65.2484 36.8846L65.4331 36.4966L65.5597 36.3133L65.6649 36.1344L65.7916 35.977L65.9505 35.8239L66.0772 35.686L66.2597 35.5588L66.4164 35.4531L66.5989 35.3518L66.8587 35.2721L67.14 35.1923L67.4556 35.1384H68.0997L68.3874 35.1923L68.6686 35.2721L68.9306 35.3691L69.1667 35.4812L69.3986 35.6342L69.6133 35.7851L69.828 36.0007L69.9826 36.2034L70.1329 36.4082L70.266 36.6389L70.3691 36.9062L70.4743 37.2015L70.5258 37.4818L70.5774 37.7621V38.3916L70.5258 38.674L70.4743 38.9607L70.3691 39.2237L70.266 39.4824L70.1329 39.7217L69.9826 39.9546L69.828 40.1701L69.6133 40.3491L69.3986 40.5065L69.1667 40.666L68.9306 40.7953L68.6686 40.873L68.3874 40.9506L68.0997 41.0001H67.5049L67.1893 40.9506L66.936 40.873L66.6698 40.7953L66.4121 40.666L66.1759 40.5388L65.972 40.3491L65.7873 40.1701L65.6005 39.9546L65.4524 39.739L65.3214 39.5061L65.2227 39.2496L65.1153 38.9866L65.0638 38.7063L65.0122 38.411L65.0165 38.0962ZM66.1566 38.0725L66.1802 38.439L66.2597 38.7732L66.3133 38.9542L66.3928 39.1138L66.4658 39.2733L66.5774 39.3962L66.674 39.5342L66.8029 39.6614L66.9403 39.7627L67.0627 39.8489L67.2473 39.9201L67.404 39.974L67.6187 39.9955L67.8034 40.0192L68.0181 39.9955L68.1963 39.974L68.3831 39.9201L68.5334 39.8489L68.6901 39.7627L68.8232 39.6614L68.9284 39.5342L69.0315 39.3962L69.1367 39.2453L69.214 39.0901L69.2891 38.9284L69.3385 38.7732L69.4201 38.4067L69.4416 38.0466L69.4201 37.678L69.3385 37.3417L69.2891 37.1606L69.214 37.001L69.1345 36.8825L69.0615 36.7208L68.9263 36.5936L68.8211 36.4836L68.688 36.3802L68.5312 36.3025L68.3809 36.2249L68.1941 36.1732L68.0159 36.1495L67.8012 36.1215L67.5865 36.1495L67.4083 36.1732L67.2237 36.2249L67.067 36.3025L66.9145 36.3802L66.7835 36.4836L66.6783 36.613L66.5517 36.751L66.4701 36.8825L66.3971 37.0355L66.3176 37.1843L66.264 37.3481L66.1845 37.7082L66.1566 38.0725ZM51.0222 38.8227L52.1687 39.1634L52.115 39.3962L52.0205 39.6118L51.9368 39.7886L51.8295 39.9718L51.6963 40.1551L51.5718 40.2801L51.4409 40.4073L51.282 40.5474L51.1295 40.6509L50.9492 40.7522L50.7688 40.8342L50.5842 40.8859L50.3695 40.9355L50.1655 40.9657L49.9508 40.9851H49.4012L49.1671 40.9786L48.9095 40.8988L48.6476 40.8191L48.4135 40.7177L48.1817 40.5841L47.967 40.4202L47.7866 40.2478L47.6062 40.0322L47.4517 39.8037L47.3207 39.5471L47.1876 39.2862L47.1103 38.9952L47.0609 38.6805L47.0094 38.398V38.0854L47.0308 37.7901L47.0609 37.4818L47.1103 37.1908L47.2155 36.9062L47.3207 36.6496L47.4517 36.3866L47.6062 36.156L47.7866 35.9404L48.0013 35.7528L48.216 35.5997L48.4457 35.4682L48.6733 35.3367L48.9439 35.2591L49.2273 35.2074L49.5128 35.1535H50.0796L50.318 35.188L50.5756 35.2354L50.7903 35.3152L51.0222 35.3842L51.2025 35.4963L51.4172 35.6235L51.5697 35.7528L51.7844 35.9684L51.939 36.2077L52.0699 36.4923L52.1988 36.8049L51.0029 37.0916L50.9535 36.8911L50.8504 36.7035L50.7216 36.5203L50.5627 36.3888L50.3824 36.2853L50.202 36.2077L49.9873 36.1581L49.7468 36.1301L49.5944 36.1581H49.4377L49.2809 36.2077L49.1543 36.2594L49.0211 36.3112L48.8923 36.3888L48.7893 36.4729L48.6776 36.6022L48.5552 36.7596L48.45 36.9083L48.3706 37.0916L48.2954 37.3072L48.2439 37.4861L48.1924 37.7017L48.1688 37.9173V38.3312L48.1924 38.5468L48.2439 38.7343L48.2954 38.9348L48.3706 39.1224L48.45 39.2776L48.5552 39.4566L48.6776 39.5924L48.7893 39.6937L48.8923 39.795L49.0211 39.8813L49.1543 39.9287L49.2809 39.9804L49.4141 40.0279L49.5686 40.0516H49.7211L49.9551 40.0279L50.1698 39.9804L50.3845 39.9007L50.5649 39.767L50.7237 39.5924L50.8526 39.3768L50.9556 39.1418L51.0222 38.8227ZM38.3311 40.9096V36.2012H36.7144V35.2376H41.0771V36.2012H39.4454V40.9182L38.3311 40.9096Z" fill="#8B8B8B"/>
<path d="M27.6795 20.4202L27.2179 20.5797L26.722 20.7069L26.2518 20.8621L25.758 20.9958L25.2598 21.0971L24.7768 21.2373L24.2829 21.3623L23.7891 21.4701L23.4778 21.5456L23.2137 21.621L22.1402 21.9315L21.2556 22.2225L20.8949 22.3842L20.5578 22.5135L20.2701 22.6688L20.0383 22.7938L19.8236 22.9533L19.6411 23.1085L19.465 23.2939L19.2804 23.4772L19.1494 23.6928L19.0184 23.8782L18.8875 24.0938L18.8145 24.3094L18.735 24.5681L18.6813 24.803V25.0186L18.7071 25.2342L18.7608 25.4498L18.8402 25.6374L18.9411 25.8141L19.0442 25.978L19.2288 26.1548L19.3834 26.3121L19.5659 26.4156L19.7806 26.4975L20.0103 26.5493L20.2723 26.601L20.5858 26.6291H20.8971L21.4682 26.5752L22.0694 26.4695L22.3506 26.4156L22.634 26.3402L22.9239 26.2626L23.2073 26.1548L23.4714 26.0513L23.7312 25.9241L24.0682 25.7365L24.4053 25.5597L24.7188 25.3787L24.9764 25.1631L25.2341 24.9259L25.4939 24.7103L25.7086 24.4775L25.9233 24.2447L26.138 24.0075L26.3527 23.7208L26.5309 23.4319L26.7177 23.1172L26.8723 22.8024L27.029 22.4704L27.1814 22.1276L27.3146 21.7633L27.6795 20.4202ZM23.2137 17.762L24.021 17.6047L24.7252 17.4537L25.2942 17.2899L25.7343 17.1886L26.5094 17.0075L27.2931 16.8048L28.0982 16.5634L28.9012 16.281L29 16.0438L29.1138 15.8067L29.1889 15.5738L29.2404 15.3065L29.2662 15.05L29.2898 14.7913L29.2662 14.5283L29.2404 14.2609L28.9806 14.1337L28.6887 14.0087L28.4117 13.8793L28.1218 13.7737L27.8341 13.6681L27.5743 13.6142L27.3146 13.5409L27.0526 13.5128L26.6125 13.4848H26.1509L25.7064 13.5409L25.2921 13.6142L24.8626 13.7241L24.4504 13.8448L24.0639 14.0087L23.7269 14.1876L23.4671 14.3666L23.203 14.5283L22.868 14.8128L22.5009 15.1535L22.1617 15.5846L21.8289 16.0546L13.8849 15.1923L14.1983 14.6943L14.5097 14.2286L14.821 13.7974L15.128 13.4115L15.4586 13.0386L15.742 12.7044L16.0512 12.3875L16.3883 12.1072L16.7018 11.7925L17.0646 11.5036L17.391 11.2276L17.7538 10.9668L18.1467 10.7081L18.5353 10.4451L18.924 10.2122L19.3383 9.99665L19.757 9.75951L20.1864 9.58273L20.6287 9.40379L21.071 9.24642L21.5433 9.08473L22.0243 8.93382L22.5245 8.82818L23.0205 8.72685L23.5658 8.61691L24.109 8.56301L24.6565 8.48755L25.204 8.43797L25.7708 8.40348L26.3162 8.38623H28.2099L28.9656 8.40348L29.6935 8.43797L30.3891 8.48755L31.0676 8.5393L31.7117 8.61691L32.3043 8.69667L32.826 8.7786L33.3713 8.87992L33.8888 9.01143L34.3869 9.18821L34.8528 9.40379L35.2929 9.65818L35.7073 9.97294L36.1024 10.2898L36.4631 10.6779L36.8023 11.0681L37.0814 11.4863L37.3455 11.9563L37.5495 12.4306L37.7341 12.9178L37.835 13.4439L37.9166 13.9914L37.9381 14.5369V14.8214L37.9166 15.2634L37.8865 15.5286L37.835 15.7873L37.7856 16.0244L37.7083 16.2896L37.4228 17.2274L37.0599 18.3204L36.6692 19.5708L36.2011 21.0044L35.688 22.6213L35.0847 24.4754L34.4406 26.5342L33.7192 28.856L33.6419 29.1191L33.6161 29.3842L33.5903 29.6408L33.6161 29.8973L33.6419 30.1323L33.6912 30.3716L33.7406 30.5721L33.8179 30.7575H25.7343V30.7101L25.6313 30.5247L25.5518 30.3414L25.4788 30.1603L25.423 29.9771L25.3457 29.5567V28.8733L25.3736 28.6448L25.423 28.4076L25.5003 28.1554L24.9292 28.6189L24.3538 29.0091L23.7891 29.3368L23.2137 29.6516L22.8273 29.8671L22.458 30.0504L22.1144 30.1991L21.7516 30.3263L21.1526 30.557L20.5085 30.7726L19.83 30.9515L19.1558 31.0809L18.4516 31.2145L17.7281 31.2965L17.0281 31.3223H15.7528L15.2332 31.2965L14.7415 31.2404L14.2971 31.1908L13.9128 31.1111L13.522 31.0291L13.1828 30.9278L12.8715 30.7963L12.5838 30.6734L12.2982 30.5117L12.0685 30.3587L11.8323 30.169L11.5983 29.99L11.3836 29.7744L11.2011 29.5589L11.0207 29.3562L10.8597 29.1126L10.7073 28.897L10.5763 28.6685L10.4496 28.4249L10.3423 28.1705L10.265 27.9053L10.1877 27.6445L10.1082 27.3814L10.061 27.0969L10.0331 26.8123L10.0073 26.5234V26.2388L10.0331 25.9262L10.0825 25.6093L10.1383 25.2946L10.2156 24.9647L10.3208 24.6263L10.4217 24.2835L10.5527 23.9903L10.6793 23.682L10.8382 23.3931L10.9692 23.1344L11.1453 22.8736L11.3063 22.6105L11.6906 22.1449L12.12 21.7008L12.5601 21.2825L13.0261 20.8665L13.5735 20.4741L14.1962 20.1378L14.8704 19.795L15.5939 19.4824L16.4076 19.1935L17.2858 18.9327L18.2219 18.6977L19.2331 18.4821L19.8021 18.3786L20.3753 18.2773L20.8928 18.176L21.4102 18.094L21.9019 17.9906L22.3742 17.9086L22.7886 17.8332L23.2137 17.762Z" fill="#8B8B8B"/>
<path d="M126.697 20.4202L126.228 20.5798L125.737 20.707L125.237 20.8622L124.773 20.9958L124.277 21.0972L123.789 21.2373L123.296 21.3623L122.8 21.4701L122.491 21.5456L122.231 21.621L121.142 21.9315L120.283 22.2204L119.893 22.3821L119.577 22.5114L119.296 22.6666L119.062 22.7917L118.858 22.9512L118.643 23.1064L118.467 23.2918L118.304 23.4751L118.147 23.6907L118.018 23.8761L117.917 24.0917L117.838 24.3072L117.758 24.5659L117.713 24.8009V25.0165L117.735 25.2321L117.786 25.4477L117.862 25.6352L117.967 25.812L118.072 25.9759L118.227 26.1526L118.411 26.31L118.591 26.4437L118.806 26.5191L119.045 26.5989L119.302 26.655H119.921L120.494 26.5989L121.037 26.4954L121.587 26.3661L122.083 26.213L122.602 25.9974L123.07 25.7603L123.513 25.4757L123.942 25.1868L124.328 24.8505L124.719 24.4862L125.056 24.1003L125.368 23.6691L125.651 23.2185L125.917 22.755L126.132 22.2613L126.314 21.7633L126.697 20.4202ZM122.231 17.7621L123.034 17.6047L123.712 17.4538L124.277 17.2899L124.751 17.1886L125.526 17.0075L126.308 16.8049L127.087 16.5634L127.918 16.281L128.021 16.0439L128.122 15.8067L128.199 15.5739L128.253 15.3066L128.283 15.05V14.5046L128.253 14.2437L127.996 14.1079L127.708 13.9829L127.427 13.8794L127.137 13.7737L126.566 13.6142L126.07 13.5129L125.604 13.4849H125.174L124.728 13.5409L124.283 13.6142L123.875 13.7242L123.48 13.8449L123.094 14.0087L122.733 14.1877L122.469 14.3666L122.237 14.5283L121.87 14.8129L121.522 15.1535L121.187 15.5847L120.827 16.0546L112.9 15.1923L113.215 14.6943L113.525 14.2286L113.814 13.7975L114.121 13.4116L114.437 13.0386L114.753 12.6786L115.066 12.366L115.38 12.0792L115.714 11.7623L116.077 11.4778L116.414 11.1932L116.775 10.928L117.17 10.6693L117.557 10.4343L117.945 10.2015L118.375 9.96435L118.789 9.74877L119.199 9.57199L119.669 9.39305L120.112 9.23567L120.582 9.07398L121.071 8.94679L121.539 8.81744L122.061 8.71611L122.606 8.60616L123.148 8.52855L123.691 8.47681L124.238 8.42723L124.814 8.39274L125.357 8.37549H127.253L128.006 8.39274L128.73 8.42723L129.432 8.47681L130.115 8.52855L130.733 8.60616L131.328 8.68593L131.879 8.76785L132.421 8.86918L132.914 9.00069L133.408 9.17747L133.898 9.39305L134.34 9.64744L134.757 9.9622L135.143 10.2791L135.51 10.6672L135.849 11.0574L136.133 11.4756L136.393 11.9456L136.607 12.4199L136.764 12.9071L136.893 13.4331L136.972 13.9807L137 14.5261L136.972 14.8107L136.946 15.2527L136.841 15.7765L136.715 16.2788L136.401 17.2166L136.066 18.3097L135.673 19.5601L135.244 20.9937L134.724 22.6106L134.149 24.4646L133.505 26.5235L132.751 28.8453L132.695 29.0609L132.672 29.3045L132.644 29.5654V29.8262L132.695 30.0871L132.723 30.3199L132.805 30.5506L132.878 30.736H124.743V30.6886L124.638 30.5032L124.562 30.3199L124.479 30.1388L124.429 29.9556L124.352 29.5352L124.322 29.1191L124.352 28.8518L124.371 28.6233L124.429 28.3861L124.507 28.1339L123.935 28.5974L123.364 28.9876L122.776 29.3368L122.231 29.6516L121.842 29.8672L121.477 30.0504L121.142 30.2121L120.775 30.3393L120.152 30.57L119.508 30.7856L118.864 30.9645L118.158 31.0939L117.458 31.2275L116.754 31.3094L116.028 31.3353H114.757L114.261 31.3094L113.769 31.2534L113.325 31.2038L112.913 31.124L112.55 31.0421L112.213 30.9408L111.904 30.8093L111.586 30.6864L111.335 30.5247L111.07 30.3717L110.834 30.1819L110.632 30.003L110.418 29.7874L110.242 29.5718L110.027 29.3692L109.872 29.1256L109.744 28.91L109.617 28.6815L109.486 28.4379L109.383 28.1835L109.276 27.9183L109.198 27.6574L109.149 27.3944L109.095 27.1098L109.069 26.8253L109.042 26.5364V26.2518L109.069 25.9392L109.095 25.6223L109.168 25.3076L109.222 24.9777L109.329 24.6392L109.456 24.2965L109.591 24.0033L109.722 23.695L109.844 23.4061L110.003 23.1474L110.158 22.8865L110.336 22.6235L110.731 22.1579L111.122 21.7137L111.551 21.2955L112.047 20.8794L112.597 20.4871L113.183 20.1508L113.862 19.808L114.615 19.4954L115.422 19.2065L116.281 18.9456L117.239 18.7106L118.254 18.4951L118.823 18.3916L119.364 18.2903L119.91 18.1889L120.432 18.107L120.9 18.0035L121.372 17.9216L121.801 17.8461L122.231 17.7621Z" fill="#8B8B8B"/>
</g>
<defs>
<clipPath id="clip0_149_1293">
<rect width="137" height="41" fill="white"/>
</clipPath>
</defs>
</svg>
