<svg width="111" height="87" viewBox="0 0 111 87" fill="none" xmlns="http://www.w3.org/2000/svg">
<g clip-path="url(#clip0_149_1300)">
<path d="M50.8253 24.1296C50.1483 18.011 56.5738 13.0978 65.1719 13.1654C73.7639 13.233 81.2849 18.2447 81.9558 24.3632C82.6328 30.4879 76.2073 35.395 67.6092 35.3274C59.0172 35.2659 51.4962 30.2481 50.8253 24.1296ZM83.556 26.0297C82.7743 18.4353 74.127 12.2246 64.2302 12.1385C54.3396 12.0585 46.9478 18.1463 47.7233 25.7345C48.4988 33.3227 57.1523 39.5458 67.0491 39.6258C76.9397 39.7057 84.3376 33.6179 83.5621 26.0297" fill="#8B8B8B"/>
<path d="M68.625 39.7798C63.7504 44.8714 55.9278 45.2834 51.1518 40.7206C46.3696 36.1578 46.4557 28.3298 51.3303 23.2444C56.2048 18.1589 64.0274 17.7346 68.7973 22.3035C73.5733 26.8663 73.4933 34.6943 68.6188 39.7798M50.5548 23.0845C44.8924 28.9939 44.794 38.0887 50.3455 43.3955C55.897 48.7024 64.9875 48.2104 70.656 42.301C76.3245 36.3915 76.423 27.2967 70.8653 21.9899C65.3199 16.6831 56.2232 17.175 50.5548 23.0845Z" fill="#8B8B8B"/>
<path d="M51.0779 4.05219C61.2147 0.258088 71.2407 4.09524 73.4687 12.6243C75.6967 21.1533 69.2835 31.1459 59.1529 34.94C49.0161 38.7403 38.9901 34.897 36.7621 26.3679C34.5279 17.8389 40.9411 7.85245 51.0779 4.05219ZM41.6674 7.31131C31.1428 15.6251 28.4717 27.6777 35.685 34.2206C42.8983 40.7695 57.2757 39.3368 67.7879 31.0168C78.3063 22.703 80.9836 10.6504 73.7641 4.10754C66.5508 -2.44145 52.1796 -1.00866 41.6674 7.31131Z" fill="#8B8B8B"/>
<path d="M16.9562 54.2305V72.9981H14.0266V63.0977H2.92964V72.9981H0V54.2305H2.92964V60.5273H14.0266V54.2305H16.9562Z" fill="#8B8B8B"/>
<path d="M23.9908 72.9982C22.6244 72.9982 21.5412 72.6108 20.7411 71.8483C19.9287 71.0797 19.5225 70.0958 19.5225 68.8844V67.882C19.5225 66.6583 19.9287 65.6622 20.7411 64.8935C21.5412 64.1125 22.6244 63.719 23.9908 63.719H31.6411V63.6452C31.6411 62.1448 30.8163 61.3946 29.173 61.3946H20.6734V58.8979H29.1299C30.8902 58.8979 32.2319 59.3468 33.1613 60.2446C34.1029 61.1117 34.5769 62.3661 34.5769 64.0203V68.9951C34.5769 70.268 34.146 71.2764 33.2844 72.0082C32.5027 72.6785 31.401 73.0105 29.9855 73.0105H23.9969V72.9982H23.9908ZM29.3392 66.2094H24.6986C23.1968 66.2094 22.4521 66.849 22.4521 68.1219V68.5892C22.4521 69.8498 23.203 70.477 24.6986 70.477H29.3392C30.8717 70.477 31.6349 69.8498 31.6349 68.5892V68.1219C31.6349 66.849 30.8717 66.2094 29.3392 66.2094Z" fill="#8B8B8B"/>
<path d="M43.1506 58.8857H46.031C47.8528 58.8857 49.2868 59.4146 50.3331 60.4784C51.3733 61.5422 51.8964 63.0181 51.8964 64.912V72.9983H48.9668V65.0596C48.9668 63.8851 48.739 63.0242 48.2836 62.4892C47.7112 61.7882 46.8926 61.4377 45.8156 61.4377H43.3229C42.2828 61.4377 41.4642 61.7882 40.8795 62.4892C40.4548 63.0304 40.2456 63.8851 40.2456 65.0596V72.9983H37.3159V64.912C37.3159 63.0181 37.8391 61.5422 38.8792 60.4784C39.9194 59.4146 41.3472 58.8857 43.1567 58.8857H43.1506Z" fill="#8B8B8B"/>
<path d="M65.4059 71.1102C64.3658 72.3647 63.0672 72.998 61.5223 72.998H59.7128C58.0819 72.998 56.7894 72.4815 55.8292 71.4546C54.9183 70.4891 54.4629 69.124 54.4629 67.3653V58.8916H57.3679V67.3899C57.3679 68.4168 57.5895 69.1732 58.0265 69.6405C58.5311 70.1817 59.1897 70.4522 60.0083 70.4522H61.2761C62.107 70.4522 62.7717 70.1817 63.2826 69.6405C63.738 69.167 63.9657 68.4168 63.9657 67.3899V58.8916H66.8461V67.3899C66.8461 68.4168 67.0677 69.1732 67.5047 69.6405C68.0094 70.1817 68.6679 70.4522 69.4865 70.4522H70.7544C71.5853 70.4522 72.2561 70.1817 72.7608 69.6405C73.2163 69.167 73.444 68.4168 73.444 67.3899V58.8916H76.349V67.3653C76.349 69.1302 75.8751 70.4953 74.9334 71.4546C73.9733 72.4815 72.6685 72.998 71.0252 72.998H69.2403C67.7263 72.998 66.4461 72.3708 65.4059 71.1102Z" fill="#8B8B8B"/>
<path d="M84.9533 61.4314C83.9131 61.4314 83.0946 61.782 82.5099 62.483C82.0852 63.0241 81.8759 63.8789 81.8759 65.0534V72.9921H78.9463V54.1753H81.8759V59.7342C82.7253 59.1624 83.6916 58.8795 84.7809 58.8795H87.6613C89.4831 58.8795 90.9172 59.4083 91.9635 60.4722C93.0036 61.536 93.5268 63.0118 93.5268 64.9058V72.9921H90.5971V65.0534C90.5971 63.8789 90.3694 63.018 89.914 62.483C89.3416 61.782 88.523 61.4314 87.4459 61.4314H84.9533Z" fill="#8B8B8B"/>
<path d="M100.42 72.9982C99.0539 72.9982 97.9707 72.6108 97.1706 71.8483C96.3582 71.0797 95.9458 70.0958 95.9458 68.8844V67.882C95.9458 66.6583 96.352 65.6622 97.1706 64.8935C97.9707 64.1125 99.0539 63.719 100.42 63.719H108.064V63.6452C108.064 62.1448 107.24 61.3946 105.596 61.3946H97.0967V58.8979H105.553C107.314 58.8979 108.655 59.3468 109.585 60.2446C110.526 61.1117 111 62.3661 111 64.0203V68.9951C111 70.268 110.569 71.2764 109.708 72.0082C108.926 72.6785 107.824 73.0105 106.409 73.0105H100.42V72.9982ZM105.769 66.2094H101.128C99.6263 66.2094 98.8816 66.849 98.8816 68.1219V68.5892C98.8816 69.8498 99.6325 70.477 101.128 70.477H105.769C107.301 70.477 108.064 69.8498 108.064 68.5892V68.1219C108.064 66.849 107.301 66.2094 105.769 66.2094Z" fill="#8B8B8B"/>
<path d="M39.5195 87.0002C39.3595 87.0002 39.2056 86.9571 39.0579 86.8649C38.9102 86.7727 38.7809 86.6251 38.6702 86.4221L34.4727 77.561H36.0421L39.5257 84.9033L43.0092 77.561H44.5787L40.3812 86.4221C40.2765 86.6251 40.1473 86.7727 39.9996 86.8649C39.8519 86.951 39.6918 87.0002 39.5318 87.0002H39.5195Z" fill="#8B8B8B"/>
<path d="M47.1636 78.4711C47.1636 78.7417 47.0713 78.9569 46.8744 79.123C46.6836 79.289 46.4558 79.3689 46.185 79.3689C45.9142 79.3689 45.705 79.289 45.5203 79.123C45.3357 78.9569 45.2495 78.7417 45.2495 78.4711C45.2495 78.2006 45.3418 77.9853 45.5203 77.8132C45.705 77.6471 45.9265 77.561 46.185 77.561C46.4435 77.561 46.6836 77.6471 46.8744 77.8132C47.0652 77.9792 47.1636 78.2006 47.1636 78.4711ZM45.4588 86.9633V79.8916H46.9421V86.9633H45.4588Z" fill="#8B8B8B"/>
<path d="M53.1028 82.8003C53.8906 82.8003 54.4692 82.9233 54.8323 83.1693C55.2939 83.4829 55.5278 83.9687 55.5278 84.6266V85.1555C55.5278 85.8073 55.2939 86.2931 54.8323 86.6006C54.4692 86.8404 53.8845 86.9572 53.0905 86.9572H48.4437V85.6782H53.0905C53.7306 85.6782 54.0506 85.4568 54.0506 85.014V84.7312C54.0506 84.2823 53.7306 84.0548 53.0905 84.0548H50.684C49.9024 84.0548 49.33 83.9379 48.9669 83.6981C48.5114 83.3845 48.2837 82.9048 48.2837 82.253V81.7119C48.2837 81.0416 48.5114 80.5558 48.9669 80.2484C49.33 80.0024 49.9024 79.8794 50.684 79.8794H55.14V81.1584H50.7086C50.0747 81.1584 49.7608 81.386 49.7608 81.8349V82.13C49.7608 82.5728 50.0747 82.7942 50.6963 82.7942H53.1028V82.8003Z" fill="#8B8B8B"/>
<path d="M58.5559 78.4711C58.5559 78.7417 58.4636 78.9569 58.2728 79.123C58.082 79.289 57.8543 79.3689 57.5835 79.3689C57.3127 79.3689 57.1034 79.289 56.9188 79.123C56.7341 78.9569 56.6479 78.7417 56.6479 78.4711C56.6479 78.2006 56.7403 77.9853 56.9188 77.8132C57.1034 77.6471 57.325 77.561 57.5835 77.561C57.842 77.561 58.082 77.6471 58.2728 77.8132C58.4636 77.9792 58.5559 78.2006 58.5559 78.4711ZM56.8511 86.9633V79.8916H58.3343V86.9633H56.8511Z" fill="#8B8B8B"/>
<path d="M64.6922 86.9633H62.5381C61.6703 86.9633 60.9871 86.6988 60.4947 86.2008C60.0023 85.7088 59.75 85.0078 59.75 84.0916V82.7756C59.75 81.8532 59.9962 81.1461 60.4947 80.6541C60.9871 80.156 61.6703 79.9039 62.5381 79.8916H64.6922C65.5723 79.8916 66.2555 80.156 66.7479 80.6541C67.2403 81.1461 67.4865 81.8532 67.4865 82.7756V84.0916C67.4865 85.0078 67.2403 85.715 66.7479 86.2008C66.2494 86.6988 65.5662 86.951 64.6922 86.9633ZM64.5814 85.6842C65.0984 85.6842 65.48 85.5243 65.7262 85.2046C65.9293 84.934 66.0278 84.5405 66.0278 84.0116V82.8556C66.0278 82.3267 65.9293 81.9209 65.7262 81.6503C65.48 81.3244 65.1046 81.1584 64.5814 81.1584H62.6366C62.1257 81.1584 61.7503 81.3244 61.5041 81.6503C61.3071 81.9209 61.2087 82.3206 61.2087 82.8556V84.0116C61.2087 84.5343 61.3071 84.934 61.5041 85.2046C61.7441 85.5243 62.1257 85.6842 62.6366 85.6842H64.5814Z" fill="#8B8B8B"/>
<path d="M71.6902 79.8916H73.1242C74.029 79.8916 74.7491 80.156 75.2661 80.691C75.7892 81.226 76.0477 81.9639 76.0477 82.9109V86.9633H74.589V82.9847C74.589 82.3944 74.4783 81.9639 74.2505 81.6933C73.9674 81.3428 73.555 81.1645 73.0196 81.1645H71.7763C71.2532 81.1645 70.8531 81.3428 70.5577 81.6933C70.3484 81.9639 70.2438 82.3944 70.2438 82.9847V86.9633H68.7852V82.9109C68.7852 81.9639 69.0437 81.2198 69.5606 80.691C70.0776 80.1622 70.7916 79.8916 71.6902 79.8916Z" fill="#8B8B8B"/>
</g>
<defs>
<clipPath id="clip0_149_1300">
<rect width="111" height="87" fill="white"/>
</clipPath>
</defs>
</svg>
