<svg width="181" height="23" viewBox="0 0 181 23" fill="none" xmlns="http://www.w3.org/2000/svg">
<g clip-path="url(#clip0_149_1318)">
<path fill-rule="evenodd" clip-rule="evenodd" d="M105.78 0.225193H117.345L116.301 3.06426H106.955C105.407 3.08222 104.531 5.00009 105.407 6.16566C106.844 8.40217 109.306 9.96186 110.835 12.2559C114.174 16.7852 110.798 22.6873 105.817 22.6873H93.1149L94.1592 19.8495H104.176C105.724 19.8303 106.583 17.9136 105.78 16.766C104.512 14.6805 102.254 12.6692 100.688 10.7333C97.5732 6.65441 100.091 0.300662 105.78 0.225193ZM82.6503 22.7245L90.8762 0.24436H97.1815L88.9555 22.7245H82.6503ZM113.689 22.7245L121.915 0.24436H128.219L120.012 22.7245H113.689ZM140.68 0.0191513H144.596C147.898 0.168891 149.894 2.91332 150.081 5.18816C150.118 5.73321 150.099 6.2591 150.043 6.65441C149.987 6.91676 149.931 7.16113 149.875 7.42467C149.186 10.3188 148.141 13.2513 146.779 15.9023C144.578 20.5826 139.952 23.0635 135.662 22.9317H131.745C128.443 22.782 126.448 20.0375 126.28 17.7627C126.243 17.2176 126.243 16.7097 126.317 16.2964C126.372 16.0521 126.428 15.7885 126.484 15.5262C127.138 12.6308 128.182 9.69952 129.563 7.04853C131.763 2.36827 136.389 -0.11262 140.68 0.0191513ZM136.37 5.95842L132.193 17.4057C132.081 17.6693 132.025 17.9699 132.043 18.2706C132.043 19.4925 132.994 20.5071 134.17 20.6006H134.785C137.117 20.5263 139.076 19.1918 139.915 16.9924L144.075 5.54514C144.187 5.2816 144.243 4.98092 144.224 4.68024C144.224 3.45837 143.272 2.44373 142.079 2.3491H141.5C139.169 2.42457 137.21 3.75905 136.37 5.95842ZM84.5901 0.24436H88.3029L73.9587 21.7853C73.586 22.3495 72.9703 22.7065 72.2606 22.7436H68.568L66.814 0.263526H73.1192L74.3314 15.6951L84.5901 0.24436ZM156.702 7.21743L151.014 22.7065H147.767L156.031 0.225193H160.153L166.103 15.4136L171.681 0.225193H174.945L166.682 22.7065H163.698C162.876 22.6682 162.168 22.1423 161.851 21.4092L156.721 7.50014L156.702 7.21743Z" fill="#8B8B8B"/>
<path fill-rule="evenodd" clip-rule="evenodd" d="M25.7784 22.7244L34.0234 0.244264H40.7192L32.4932 22.7244H25.7784ZM19.809 8.89083L22.98 0.225098H29.677L21.9548 21.3336C21.9548 21.3336 21.9548 21.3528 21.9357 21.3528C21.619 22.1422 20.8723 22.6872 19.9769 22.7064H14.7362L18.6718 11.9551H10.7066L6.771 22.7064H0.0751953L8.30117 0.225098H14.997L11.8259 8.89083H19.809ZM59.7457 0.225098H64.7446L53.5714 8.87166L60.659 22.7064H54.9706C54.9884 22.7064 55.0075 22.7064 55.0266 22.6872C54.1489 22.7435 53.3475 22.2368 52.9748 21.4845C52.9748 21.4845 52.9748 21.4654 52.9558 21.4654V21.4845L48.5165 12.8008L46.8375 14.097L43.6855 22.7244H36.9885L45.2145 0.244264H51.9114L48.8142 8.68359L59.7457 0.225098Z" fill="#8B8B8B"/>
<path fill-rule="evenodd" clip-rule="evenodd" d="M177.389 1.10938H178.639C178.9 1.10938 179.087 1.12734 179.217 1.18484C179.348 1.24115 179.459 1.33458 179.534 1.44719C179.608 1.57896 179.646 1.7299 179.646 1.87964C179.646 2.08687 179.59 2.25578 179.459 2.38755C179.328 2.51932 179.124 2.61276 178.863 2.6499C178.956 2.7074 179.031 2.74453 179.087 2.80083C179.199 2.89427 179.292 3.02604 179.403 3.17698L179.888 3.94724H179.423L179.049 3.34589C178.937 3.17698 178.844 3.04521 178.769 2.95057C178.695 2.85714 178.639 2.80083 178.583 2.7637C178.527 2.72536 178.471 2.7074 178.415 2.68823C178.377 2.68823 178.303 2.66906 178.209 2.66906H177.761V3.94724H177.389V1.10938ZM177.761 2.36839H178.564C178.732 2.36839 178.863 2.34922 178.975 2.31208C179.068 2.27495 179.143 2.21865 179.199 2.14318C179.255 2.06771 179.272 1.97427 179.272 1.87964C179.272 1.74786 179.217 1.63526 179.124 1.54182C179.031 1.44719 178.881 1.41005 178.657 1.41005H177.761V2.36839Z" fill="#8B8B8B"/>
<path fill-rule="evenodd" clip-rule="evenodd" d="M180.97 2.57546C180.97 3.90994 179.888 5.00005 178.564 5.00005C177.24 5.00005 176.157 3.90994 176.157 2.57546C176.157 1.24098 177.24 0.150879 178.564 0.150879C179.888 0.150879 180.97 1.24098 180.97 2.57546ZM180.691 2.57546C180.691 1.39072 179.739 0.432389 178.564 0.432389C177.389 0.432389 176.437 1.39072 176.437 2.57546C176.437 3.7602 177.389 4.71734 178.564 4.71734C179.739 4.71734 180.691 3.759 180.691 2.57546Z" fill="#8B8B8B"/>
</g>
<defs>
<clipPath id="clip0_149_1318">
<rect width="181" height="23" fill="white"/>
</clipPath>
</defs>
</svg>
